<?xml version="1.0" encoding="UTF-8" standalone="no"?>
<!-- Created with Inkscape (http://www.inkscape.org/) -->

<svg
   xmlns:dc="http://purl.org/dc/elements/1.1/"
   xmlns:cc="http://creativecommons.org/ns#"
   xmlns:rdf="http://www.w3.org/1999/02/22-rdf-syntax-ns#"
   xmlns:svg="http://www.w3.org/2000/svg"
   xmlns="http://www.w3.org/2000/svg"
   xmlns:sodipodi="http://sodipodi.sourceforge.net/DTD/sodipodi-0.dtd"
   xmlns:inkscape="http://www.inkscape.org/namespaces/inkscape"
   width="1536.1034"
   height="958.91223"
   id="svg2"
   version="1.1"
   inkscape:version="0.48.5 r10040"
   sodipodi:docname="flowchart.svg">
  <defs
     id="defs4" />
  <sodipodi:namedview
     id="base"
     pagecolor="#ffffff"
     bordercolor="#666666"
     borderopacity="1.0"
     inkscape:pageopacity="0.0"
     inkscape:pageshadow="2"
     inkscape:zoom="0.7"
     inkscape:cx="786.3604"
     inkscape:cy="469.66549"
     inkscape:document-units="px"
     inkscape:current-layer="layer1"
     showgrid="false"
     inkscape:window-width="1366"
     inkscape:window-height="724"
     inkscape:window-x="1"
     inkscape:window-y="1"
     inkscape:window-maximized="0"
     fit-margin-top="200"
     fit-margin-left="200"
     fit-margin-bottom="200"
     fit-margin-right="200" />
  <metadata
     id="metadata7">
    <rdf:RDF>
      <cc:Work
         rdf:about="">
        <dc:format>image/svg+xml</dc:format>
        <dc:type
           rdf:resource="http://purl.org/dc/dcmitype/StillImage" />
        <dc:title />
      </cc:Work>
    </rdf:RDF>
  </metadata>
  <g
     inkscape:label="Layer 1"
     inkscape:groupmode="layer"
     id="layer1"
     transform="translate(410.53453,-220.16311)">
    <g
       transform="matrix(12.759845,0,0,7.4059698,-280.47509,-6689.2578)"
       id="g3667"
       style="fill:none;stroke:#000000;stroke-width:1.45597529;stroke-miterlimit:4;stroke-dasharray:none">
      <path
         inkscape:connector-curvature="0"
         style="font-size:medium;font-style:normal;font-variant:normal;font-weight:normal;font-stretch:normal;text-indent:0;text-align:start;text-decoration:none;line-height:normal;letter-spacing:normal;word-spacing:normal;text-transform:none;direction:ltr;block-progression:tb;writing-mode:lr-tb;text-anchor:start;baseline-shift:baseline;color:#000000;fill:none;stroke:#000000;stroke-width:1.45597529;stroke-miterlimit:4;stroke-dasharray:none;marker:none;visibility:visible;display:inline;overflow:visible;enable-background:accumulate;font-family:Sans;-inkscape-font-specification:Sans"
         d="M 49.96875,10.96875 A 2.0001999,2.0001999 0 0 0 48.75,11.4375 l -42,34 A 2.0001999,2.0001999 0 0 0 8,49 l 8,0 0,38 a 2.0001999,2.0001999 0 1 0 4,0 L 20,47 A 2.0001999,2.0001999 0 0 0 18,45 L 13.65625,45 51.25,14.5625 a 2.0001999,2.0001999 0 0 0 -1.28125,-3.59375 z m 6.8125,5.6875 A 2.0001999,2.0001999 0 0 0 55.75,20.21875 L 86.34375,45 82,45 a 2.0001999,2.0001999 0 0 0 -2,2 l 0,38 -54,0 a 2.0001999,2.0001999 0 1 0 0,4 l 56,0 a 2.0001999,2.0001999 0 0 0 2,-2 l 0,-38 8,0 a 2.0001999,2.0001999 0 0 0 1.25,-3.5625 L 58.28125,17.125 a 2.0001999,2.0001999 0 0 0 -1.5,-0.46875 z"
         transform="translate(0,952.36218)"
         id="path3669" />
    </g>
    <g
       transform="translate(-5.31367,400.85311)"
       id="g3742" />
    <g
       id="g5001"
       transform="translate(-343.02113,-612.75651)">
      <path
         style="fill:#000000"
         inkscape:connector-curvature="0"
         d="m 415.7826,1001.6686 c 0,4.815 -3.909,8.724 -8.749,8.724 -4.812,0 -8.735,-3.908 -8.735,-8.724 0,-4.84398 3.923,-8.74898 8.735,-8.74898 4.84,0.003 8.749,3.904 8.749,8.74898 z"
         id="path3738" />
      <path
         style="fill:#000000"
         inkscape:connector-curvature="0"
         d="m 465.8546,1001.6686 c 0,4.815 -3.907,8.724 -8.749,8.724 -4.812,0 -8.734,-3.908 -8.734,-8.724 0,-4.84398 3.923,-8.74898 8.734,-8.74898 4.842,0.003 8.749,3.904 8.749,8.74898 z"
         id="path3740" />
      <path
         transform="translate(380.5646,973.60962)"
         style="fill:#000000"
         inkscape:connector-curvature="0"
         d="m 31.88,55.158 c -0.673,2.354 -2.836,4.078 -5.406,4.078 -3.107,0 -5.627,-2.52 -5.627,-5.627 0,-3.107 2.52,-5.627 5.627,-5.627 2.634,0 4.84,1.813 5.452,4.258 h 4.871 v -1.582 h 2.196 v 1.582 h 6.891 v -2.305 c 0,-6.291 -3.88,-11.345 -10.06,-11.345 l -19.592,0.018 c -6.779,0 -10.188,5.668 -10.188,11.47 v 26.669 c -0.019,5.259 6.839,5.259 6.839,0 V 50.635 h 2.146 L 15.04,78.238 H 36.798 V 55.158 H 31.88 z"
         id="path3744" />
      <path
         transform="translate(380.5646,973.60962)"
         style="fill:#000000"
         inkscape:connector-curvature="0"
         d="m 38.993,55.158 v 21.586 c 0,5.222 6.891,5.222 6.891,0 V 55.158 h -6.891 z"
         id="path3746" />
      <g
         id="g3748"
         transform="translate(380.5646,973.60962)">
        <path
           style="fill:#000000"
           inkscape:connector-curvature="0"
           d="m 56.116,55.158 v 21.589 c -0.018,5.259 6.838,5.259 6.838,0 V 55.158 h -6.838 z"
           id="path3750" />
        <path
           style="fill:#000000"
           inkscape:connector-curvature="0"
           d="m 85.896,38.59 -19.593,0.018 c -6.777,0 -10.188,5.668 -10.188,11.47 v 2.162 h 6.838 V 50.635 H 65.1 v 1.605 h 5.994 c 0.612,-2.445 2.818,-4.258 5.452,-4.258 3.107,0 5.627,2.52 5.627,5.627 0,3.107 -2.52,5.627 -5.627,5.627 -2.569,0 -4.732,-1.725 -5.406,-4.078 h -6.038 l 0.007,23.079 H 86.871 V 50.658 h 2.194 v 26.086 c 0,5.222 6.89,5.222 6.89,0 V 49.936 C 95.959,43.645 92.079,38.59 85.896,38.59 z"
           id="path3752" />
      </g>
    </g>
    <text
       xml:space="preserve"
       style="font-size:12px;font-style:normal;font-variant:normal;font-weight:normal;font-stretch:normal;text-align:end;line-height:125%;letter-spacing:0px;word-spacing:0px;writing-mode:lr-tb;text-anchor:end;fill:#000000;fill-opacity:1;stroke:none;font-family:Calibri;-inkscape-font-specification:Calibri"
       x="228.12057"
       y="409.30115"
       id="text4666"
       sodipodi:linespacing="125%"><tspan
         sodipodi:role="line"
         x="233.11276"
         y="409.30115"
         id="tspan4670"
         style="font-size:18px;font-style:normal;font-variant:normal;font-weight:normal;font-stretch:normal;text-align:end;text-anchor:end;font-family:Gill Sans MT;-inkscape-font-specification:Gill Sans MT"><tspan
   style="font-weight:bold"
   id="tspan5802">1.</tspan> Twins </tspan><tspan
         sodipodi:role="line"
         x="228.12057"
         y="431.80115"
         style="font-size:18px;font-style:normal;font-variant:normal;font-weight:normal;font-stretch:normal;text-align:end;text-anchor:end;font-family:Gill Sans MT;-inkscape-font-specification:Gill Sans MT"
         id="tspan4674">register</tspan></text>
    <g
       id="g5472">
      <g
         transform="matrix(1.0773077,0,0,1.0773077,743.83879,454.26639)"
         id="g3287">
        <path
           inkscape:connector-curvature="0"
           style="fill:#000000;fill-opacity:1;stroke:none"
           d="m 30.105616,56.889022 0,20.49045 c 0,0.76062 0.610226,1.37083 1.37084,1.37083 l 3.206643,0 c 0.76068,0 1.370841,-0.61021 1.370841,-1.37083 l 0,-20.47445 -5.948324,-0.0159 z m 8.225041,0.0241 0,20.58665 c 0,0.76067 0.618179,1.37083 1.378856,1.37083 l 3.198627,0 c 0.76068,0 1.378857,-0.61016 1.378857,-1.37083 l 0,-20.57862 -5.95634,-0.008 z"
           id="path3265" />
        <path
           inkscape:connector-curvature="0"
           style="fill:#000000;fill-opacity:1;stroke:none"
           d="m 61.667006,12.180372 c -0.09092,0.009 -0.181737,0.028 -0.272565,0.0561 l -3.350943,1.03415 1.178442,4.4332 3.527308,-1.09026 c 0.726593,-0.22477 1.130621,-0.9969 0.905877,-1.72358 l -0.54513,-1.74761 c -0.196676,-0.63582 -0.806509,-1.02531 -1.442989,-0.962 z"
           id="path3267" />
        <path
           inkscape:connector-curvature="0"
           style="fill:#000000;fill-opacity:1;stroke:none"
           d="m 22.537937,39.156282 -0.0962,0.85776 c -0.08545,0.75585 0.454707,1.42973 1.210508,1.51515 l 1.81977,0.20841 c 0.755796,0.0854 1.429694,-0.45468 1.51514,-1.2105 l 0.0962,-0.88182 -4.545417,-0.489 z"
           id="path3269" />
        <path
           inkscape:connector-curvature="0"
           style="text-indent:0;text-transform:none;direction:ltr;block-progression:tb;baseline-shift:baseline;color:#000000;fill:#000000;fill-opacity:1;fill-rule:nonzero;stroke:none;marker:none;visibility:visible;display:inline;overflow:visible;enable-background:accumulate"
           d="m 34.330369,14.569322 -0.312648,0.0321 c 0,0 -4.480336,0.47399 -7.319164,0.72952 l -0.008,0 c -1.234029,0.0892 -2.091514,0.25292 -2.629448,0.88181 -0.53927,0.63047 -0.660999,1.57931 -0.665378,3.10244 -0.01657,5.75046 -1.827787,19.87318 -1.827787,19.87318 l -0.0481,0.34471 0.352731,0.0241 5.611626,0.43292 0.312648,0.0241 0.0481,-0.30464 2.284733,-15.87288 0.416864,0.0401 -0.953977,14.61429 -4.505334,18.36606 -0.104216,0.40884 0.42488,0 11.511851,-0.0802 0.328681,0 0,-0.32867 0,-0.16836 -0.625295,-0.0481 0,-6.59768 -0.04008,6.47742 -10.750273,0.0802 4.417151,-17.98126 0,-0.0241 0.008,-0.0321 0.978026,-14.95897 0.02404,-0.32067 -0.320664,-0.0321 -1.058192,-0.10423 -0.312648,-0.0321 -0.0481,0.31264 -2.29275,15.87288 -4.962281,-0.37676 c 0.07713,-0.59954 1.779146,-13.85355 1.79572,-19.60863 0.0043,-1.48324 0.161169,-2.26751 0.505047,-2.66952 0.343878,-0.40206 0.98075,-0.56314 2.180518,-0.64936 2.724995,-0.24511 6.6588,-0.66698 7.022549,-0.70546 l 2.910029,18.93523 0.344714,-2.13242 -2.645481,-17.21164 -0.0481,-0.31266 z"
           visibility="visible"
           display="inline"
           overflow="visible"
           id="path3271" />
        <path
           inkscape:connector-curvature="0"
           style="text-indent:0;text-transform:none;direction:ltr;block-progression:tb;baseline-shift:baseline;color:#000000;fill:#000000;fill-opacity:1;fill-rule:nonzero;stroke:none;marker:none;visibility:visible;display:inline;overflow:visible;enable-background:accumulate"
           d="m 58.540528,12.340712 -0.360747,0.12826 c 0,0 -5.946834,2.05359 -11.664167,2.78978 -2.258439,-0.11941 -4.650898,-0.40606 -6.966433,-0.65736 l -0.312648,-0.0321 -0.0481,0.31266 -2.998212,19.5044 0,0.0241 0,0.0241 0.128266,22.41444 0,0.32869 0.328681,0 11.51185,0.0882 0.424881,0.008 -0.104216,-0.41686 -4.505335,-18.37407 -0.953976,-14.60628 0.729511,-0.0721 0.04008,0 0.04008,-0.0159 c 5.13336,-1.80285 10.461993,-3.47489 15.688505,-5.17873 l 0.280581,-0.0882 -0.05612,-0.2886 -1.122325,-5.51543 -0.08017,-0.37676 z m -0.505046,0.86579 0.994059,4.86607 c -5.12226,1.66758 -10.344837,3.3108 -15.391889,5.08256 l -1.002076,0.0962 -0.320665,0.0321 0.02404,0.32067 0.978027,14.95896 0,0.0241 0.008,0.0321 4.409135,17.98927 -10.758289,-0.0882 -0.128266,-22.03765 2.950112,-19.19176 c 2.228756,0.24363 4.526971,0.51078 6.725935,0.6253 l 0.03207,0.008 0.02404,-0.008 c 5.531419,-0.70998 10.905837,-2.52243 11.455734,-2.70962 z"
           visibility="visible"
           display="inline"
           overflow="visible"
           id="path3273" />
        <path
           inkscape:connector-curvature="0"
           d="m 36.513359,0.47104847 c -3.791507,0 -6.865137,3.07360403 -6.865137,6.86511403 0,0.007 -7e-6,0.009 0,0.0139 -0.0053,0 -0.0092,0 -0.01429,0 -0.06327,2.16445 -0.205731,3.6352295 -0.400464,5.0487095 -0.18392,0.60024 -1.215698,-0.0432 -2.131053,-0.50051 0.424757,2.11387 1.198556,2.75525 2.274077,2.7603 0.895939,-0.0326 1.93178,-0.85327 1.845005,-2.7603 2.57e-4,-0.0598 -7.69e-4,-0.13779 0,-0.20028 1.259172,1.52575 3.159155,2.5029 5.291883,2.5029 2.118171,0 4.003952,-0.96645 5.26327,-2.47432 7.69e-4,0.0532 -2.57e-4,0.12036 0,0.1717 -0.08677,1.90703 0.963368,2.728 1.859307,2.7603 1.075521,-0.007 1.835016,-0.64643 2.259773,-2.7603 -0.915348,0.4576 -1.947126,1.10075 -2.131051,0.50051 -0.189177,-1.37313 -0.334294,-2.8128095 -0.400466,-4.8770995 0.0021,-0.0625 0.01429,-0.12298 0.01429,-0.1859 0,-3.79151 -3.073625,-6.86512003 -6.86514,-6.86512003 z"
           style="fill:#000000;fill-opacity:1;stroke:none"
           id="path3275" />
        <path
           inkscape:connector-curvature="0"
           style="text-indent:0;text-transform:none;direction:ltr;block-progression:tb;baseline-shift:baseline;color:#000000;fill:#000000;fill-opacity:1;stroke:none;marker:none;visibility:visible;display:inline;overflow:visible;enable-background:accumulate"
           d="m 61.410474,9.8635625 a 0.25655715,0.25655715 0 0 0 -0.01603,0.008 l -2.974162,0.8016695 a 0.25655715,0.25655715 0 0 0 -0.176365,0.31263 l 2.332833,8.60986 -0.961993,4.18465 a 0.25655715,0.25655715 0 0 0 0.320664,0.30466 l 6.934366,-1.87592 a 0.25655715,0.25655715 0 0 0 0.120249,-0.42486 l -2.950111,-3.13456 -2.332833,-8.60181 A 0.25655715,0.25655715 0 0 0 61.410474,9.8634825 z m -0.136282,0.5691895 2.29275,8.41744 a 0.25655715,0.25655715 0 0 0 0.05612,0.10423 l 2.69358,2.86992 -6.100639,1.65145 0.873811,-3.83196 a 0.25655715,0.25655715 0 0 0 0,-0.12024 l -2.292751,-8.41744 2.477133,-0.6734 z"
           visibility="visible"
           display="inline"
           overflow="visible"
           id="path3277" />
        <path
           inkscape:connector-curvature="0"
           style="fill:#000000;stroke:none"
           d="m 60.639475,20.623722 4.859465,0.0414 1.240715,1.24071 -6.844612,1.90244 z"
           id="path3279" />
      </g>
      <g
         id="g4676"
         transform="matrix(-0.78391946,-0.62086252,-0.62086252,0.78391946,794.99504,535.55347)">
        <path
           style="fill:none"
           inkscape:connector-curvature="0"
           d="m 61.192,69.118 c 0,-0.482 -10e-4,-0.953 0,-1.425 0.007,-4.655 0.057,-9.311 0.004,-13.966 -0.038,-3.369 -0.13,-6.741 -0.345,-10.102 -0.517,-8.09 -0.957,-16.179 -0.779,-24.291 0.078,-3.531 0.102,-7.063 0.129,-10.594 0.003,-0.441 0.173,-0.955 -0.339,-1.335 -1.587,0.735 -3.047,1.607 -4.09,3.127 -0.485,0.707 -1.234,1.252 -1.924,1.794 -0.934,0.734 -1.926,1.393 -3.197,2.301 C 50.003,14.024 49.266,13.412 48.615,12.719 47.3,11.316 46.052,9.851 44.737,8.448 44.029,7.691 43.229,7.029 42.068,6.884 c -0.404,2.296 -0.729,4.495 -0.235,6.738 0.557,2.529 0.484,5.102 0.482,7.669 -0.002,3.211 -0.003,6.421 0.017,9.632 0.005,0.881 0.069,1.763 0.132,2.642 0.104,1.436 0.26,2.868 0.34,4.305 0.253,4.545 -0.527,9.123 0.418,13.648 0.032,0.155 0.012,0.321 0.013,0.481 0.008,2.809 0.031,5.618 0.014,8.428 -0.004,0.717 -0.124,1.434 -0.207,2.149 -0.25,2.144 -0.503,4.287 -0.771,6.43 -0.037,0.302 -0.169,0.592 -0.278,0.955 -0.433,0.083 -0.813,0.208 -1.196,0.219 -0.72,0.023 -1.481,0.123 -2.157,-0.06 -2.222,-0.603 -4.471,-0.271 -6.707,-0.313 -0.337,-0.007 -0.678,0.256 -1.055,0.41 0.147,0.349 0.195,0.599 0.337,0.773 0.454,0.56 0.901,1.135 1.424,1.625 1.532,1.436 2.867,3.014 3.91,4.849 0.392,0.691 0.891,1.351 1.457,1.907 2.862,2.81 5.736,5.607 8.658,8.354 1.577,1.482 3.258,2.854 4.892,4.274 0.351,0.305 0.706,0.606 1.138,0.977 1.711,-1.748 3.144,-3.576 4.448,-5.499 3.6,-5.313 7.163,-10.651 10.741,-15.978 0.529,-0.788 1.139,-1.532 1.485,-2.636 -2.774,0.146 -5.399,1.276 -8.176,0.255 z"
           id="path4678" />
        <path
           style="fill:#000000;fill-rule:evenodd"
           inkscape:connector-curvature="0"
           clip-rule="evenodd"
           d="m 68.873,67.361 c -1.578,0.27 -3.146,0.599 -4.724,0.862 -0.435,0.072 -0.894,0.001 -1.444,-0.006 C 62.675,67.265 62.632,66.472 62.629,65.68 62.611,61.503 62.635,57.326 62.58,53.15 62.547,50.662 62.439,48.174 62.285,45.691 62.087,42.486 61.794,39.288 61.57,36.085 61.413,33.844 61.294,31.599 61.174,29.356 61.093,27.834 61.011,26.309 60.984,24.786 60.882,19.004 60.808,13.222 60.706,7.439 60.699,6.996 60.855,6.455 60.161,6.126 57.091,7.986 54.147,10.147 51.168,12.581 50.401,11.89 49.859,11.293 49.212,10.845 48.213,10.153 47.358,9.362 46.595,8.4 45.431,6.932 43.757,6.063 42.153,5.162 41.361,4.717 40.496,5.237 40.431,6.169 c -0.096,1.358 -0.136,2.726 -0.083,4.085 0.069,1.764 0.323,3.521 0.373,5.285 0.134,4.655 0.188,9.314 0.297,13.97 0.115,4.897 0.255,9.794 0.388,14.69 0.016,0.562 0.056,1.123 0.09,1.683 0.133,2.16 0.287,4.319 0.396,6.48 0.065,1.283 0.01,2.572 0.094,3.853 0.228,3.469 -0.085,6.896 -0.721,10.301 -0.142,0.761 -0.296,1.52 -0.45,2.303 -0.785,0 -1.452,0.132 -2.042,-0.025 -1.579,-0.424 -3.18,-0.384 -4.783,-0.43 -1.036,-0.03 -2.078,0.074 -3.087,-0.346 -0.717,-0.299 -1.451,-0.037 -2.074,0.33 -0.369,0.218 -0.61,0.654 -0.947,1.035 0.425,0.543 0.722,1.026 1.117,1.409 3.46,3.367 6.529,7.085 9.697,10.716 2.533,2.904 5.105,5.765 8.146,8.182 1.753,1.393 3.302,3.04 4.963,4.55 0.327,0.297 0.75,0.491 1.173,0.76 1.98,-2.307 3.899,-4.458 5.467,-6.884 4.401,-6.808 8.841,-13.589 13.61,-20.148 0.075,-0.103 0.034,-0.292 0.065,-0.64 -1.078,-0.192 -2.165,-0.153 -3.247,0.033 z m -0.985,4.137 c -3.579,5.327 -7.141,10.665 -10.741,15.978 -1.304,1.923 -2.737,3.752 -4.448,5.499 -0.433,-0.371 -0.787,-0.672 -1.138,-0.977 -1.635,-1.42 -3.316,-2.792 -4.892,-4.274 -2.922,-2.747 -5.796,-5.544 -8.658,-8.354 -0.566,-0.556 -1.065,-1.216 -1.457,-1.907 -1.043,-1.835 -2.377,-3.413 -3.91,-4.849 -0.523,-0.49 -0.97,-1.065 -1.424,-1.625 -0.141,-0.174 -0.19,-0.424 -0.337,-0.773 0.376,-0.154 0.718,-0.417 1.055,-0.41 2.236,0.042 4.484,-0.29 6.707,0.313 0.676,0.183 1.437,0.083 2.157,0.06 0.383,-0.012 0.763,-0.136 1.196,-0.219 0.108,-0.362 0.24,-0.653 0.278,-0.955 0.268,-2.142 0.52,-4.286 0.771,-6.43 0.083,-0.715 0.203,-1.433 0.207,-2.149 0.017,-2.809 -0.006,-5.619 -0.014,-8.428 -0.001,-0.16 0.019,-0.326 -0.013,-0.481 C 42.282,46.992 43.062,42.414 42.809,37.869 42.729,36.432 42.573,35 42.469,33.564 42.405,32.685 42.342,31.803 42.337,30.922 42.318,27.711 42.319,24.501 42.32,21.29 c 0.002,-2.567 0.074,-5.14 -0.482,-7.669 -0.494,-2.243 -0.169,-4.442 0.235,-6.738 1.162,0.145 1.961,0.807 2.669,1.564 1.314,1.404 2.563,2.868 3.878,4.271 0.65,0.693 1.388,1.305 2.036,1.908 1.271,-0.908 2.263,-1.568 3.197,-2.301 0.689,-0.542 1.439,-1.087 1.924,-1.794 1.043,-1.52 2.503,-2.392 4.09,-3.127 0.512,0.38 0.342,0.893 0.339,1.335 -0.028,3.531 -0.052,7.064 -0.129,10.594 -0.178,8.112 0.262,16.201 0.779,24.291 0.215,3.361 0.307,6.734 0.345,10.102 0.053,4.654 0.002,9.311 -0.004,13.966 -0.001,0.472 0,0.944 0,1.425 2.777,1.021 5.402,-0.108 8.18,-0.256 -0.35,1.105 -0.96,1.849 -1.489,2.637 z"
           id="path4680" />
      </g>
      <text
         xml:space="preserve"
         style="font-size:12px;font-style:normal;font-variant:normal;font-weight:normal;font-stretch:normal;text-align:start;line-height:125%;letter-spacing:0px;word-spacing:0px;writing-mode:lr-tb;text-anchor:start;fill:#000000;fill-opacity:1;stroke:none;font-family:Calibri;-inkscape-font-specification:Calibri"
         x="632.31268"
         y="478.46432"
         id="text4682"
         sodipodi:linespacing="125%"><tspan
           sodipodi:role="line"
           x="632.31268"
           y="478.46432"
           id="tspan4684"
           style="font-size:18px;font-style:normal;font-variant:normal;font-weight:normal;font-stretch:normal;text-align:start;text-anchor:start;font-family:Gill Sans MT;-inkscape-font-specification:Gill Sans MT"><tspan
   style="font-weight:bold"
   id="tspan5800">2.</tspan> Researchers </tspan><tspan
           sodipodi:role="line"
           x="632.31268"
           y="500.96432"
           style="font-size:18px;font-style:normal;font-variant:normal;font-weight:normal;font-stretch:normal;text-align:start;text-anchor:start;font-family:Gill Sans MT;-inkscape-font-specification:Gill Sans MT"
           id="tspan4686">register</tspan></text>
    </g>
    <g
       id="g4857"
       transform="translate(0.34662953,39.018141)">
      <g
         style="stroke:#ffffff"
         id="g3558"
         transform="matrix(0.61778027,0,0,0.61778027,352.05827,132.93689)">
        <path
           id="path3560"
           overflow="visible"
           display="inline"
           visibility="visible"
           d="m 14,965.36217 c -2.216,0 -4,1.784 -4,4 l 0,8 8.0938,0 10.3437,-12 -14.4375,0 z m 19.6875,0 -10.3437,12 14.75,0 10.3437,-12 -14.75,0 z m 20,0 -10.3437,12 14.75,0 10.3437,-12 -14.75,0 z m 20,0 -10.3437,12 16.6562,0 0,-8 c 0,-2.216 -1.784,-4 -4,-4 l -2.3125,0 z m -63.6875,16 0,44.00003 c 0,2.216 1.784,4 4,4 l 46.5312,0 c -0.332,-1.2836 -0.5312,-2.6126 -0.5312,-4 0,-8.8366 7.1634,-16 16,-16 1.3874,0 2.7164,0.1994 4,0.5312 l 0,-28.53123 -70,0 z m 30,14 16,10.00003 -16,10 0,-20.00003 z m 36,16.00003 c -7.732,0 -14,6.268 -14,14 0,7.732 6.268,14 14,14 7.732,0 14,-6.268 14,-14 0,-7.732 -6.268,-14 -14,-14 z m 0,2 c 3.4574,0 6.5,2.4646 6.5,5.7812 0,3.513 -1.7088,5.4021 -2.9688,6.5626 -1.26,1.1603 -2.0312,1.5904 -2.0312,4.1562 0.011,0.7925 -0.7074,1.5312 -1.5,1.5312 -0.7925,0 -1.511,-0.7387 -1.5,-1.5312 0,-3.4035 1.7286,-5.233 2.9688,-6.375 1.2398,-1.142 2.0312,-1.6344 2.0312,-4.3438 0,-1.4319 -1.4376,-2.7812 -3.5,-2.7812 -1.9321,0 -3.2715,0.8764 -3.5312,1.9688 -0.1857,0.7717 -1.0417,1.3136 -1.8126,1.125 -0.7708,-0.1887 -1.3167,-1.0736 -1.125,-1.8438 0.6722,-2.8261 3.5712,-4.25 6.4688,-4.25 z m 0,20 c 1.1046,0 2,0.8954 2,2 0,1.1046 -0.8954,2 -2,2 -1.1046,0 -2,-0.8954 -2,-2 0,-1.1046 0.8954,-2 2,-2 z"
           style="color:#000000;fill:#000000;stroke:#ffffff;marker:none;visibility:visible;display:inline;overflow:visible;enable-background:accumulate"
           inkscape:connector-curvature="0" />
      </g>
      <g
         transform="matrix(0.57638764,0,0,0.57638764,329.83574,700.37094)"
         id="g3423">
        <path
           id="path3425"
           d="M 45.38,6 H 37 V 1 H 27 V 6 H 9 V 63 H 55 V 14.551 L 45.38,6 z M 31,17 h 2 v 1.5 L 31,20 V 17 z M 26,15 V 14.088 C 26,12.385 27.385,11 29.088,11 h 5.824 C 36.615,11 38,12.385 38,14.088 V 15 H 26 z M 29,3 h 6 V 9 H 34.912 29.088 29 V 3 z M 11,61 V 8 h 16 v 1.46 c -1.764,0.8 -3,2.569 -3,4.628 V 17 h 5 v 7 l 6,-4.5 V 17 h 5 V 14.088 C 40,12.028 38.764,10.259 37,9.46 V 8 h 7 l 10e-4,8 H 53 V 61 H 11 z M 46,9.227 51.37,14 H 46.001 L 46,9.227 z"
           inkscape:connector-curvature="0" />
        <rect
           id="rect3427"
           height="2"
           width="38"
           y="48"
           x="13" />
        <rect
           id="rect3429"
           height="2"
           width="38"
           y="52"
           x="13" />
        <rect
           id="rect3431"
           height="2"
           width="9"
           y="56"
           x="42" />
        <path
           id="path3433"
           d="m 17,40 c 1.654,0 3,-1.346 3,-3 0,-0.421 -0.089,-0.822 -0.247,-1.186 l 4.863,-4.168 C 25.032,31.864 25.498,32 26,32 c 0.548,0 1.055,-0.158 1.497,-0.416 l 5.548,3.963 C 33.023,35.696 33,35.845 33,36 c 0,1.654 1.346,3 3,3 1.654,0 3,-1.346 3,-3 0,-0.492 -0.13,-0.95 -0.342,-1.361 L 44.79,27.74 C 45.161,27.905 45.569,28 46,28 c 1.654,0 3,-1.346 3,-3 0,-1.654 -1.346,-3 -3,-3 -1.654,0 -3,1.346 -3,3 0,0.492 0.131,0.95 0.342,1.361 L 37.21,33.26 C 36.839,33.095 36.431,33 36,33 c -0.768,0 -1.463,0.299 -1.994,0.775 l -5.208,-3.72 C 28.923,29.726 29,29.373 29,29 c 0,-1.654 -1.346,-3 -3,-3 -1.654,0 -3,1.346 -3,3 0,0.421 0.089,0.822 0.247,1.186 l -4.863,4.168 C 17.968,34.135 17.502,34 17,34 c -1.654,0 -3,1.346 -3,3 0,1.654 1.346,3 3,3 z M 46,24 c 0.552,0 1,0.449 1,1 0,0.551 -0.448,1 -1,1 -0.552,0 -1,-0.449 -1,-1 0,-0.551 0.448,-1 1,-1 z M 36,35 c 0.552,0 1,0.449 1,1 0,0.551 -0.448,1 -1,1 -0.552,0 -1,-0.449 -1,-1 0,-0.551 0.448,-1 1,-1 z M 26,28 c 0.552,0 1,0.449 1,1 0,0.551 -0.448,1 -1,1 -0.552,0 -1,-0.449 -1,-1 0,-0.551 0.448,-1 1,-1 z m -9,8 c 0.552,0 1,0.449 1,1 0,0.551 -0.448,1 -1,1 -0.552,0 -1,-0.449 -1,-1 0,-0.551 0.448,-1 1,-1 z"
           inkscape:connector-curvature="0" />
        <rect
           id="rect3435"
           height="2"
           width="38"
           y="44"
           x="13" />
      </g>
    </g>
    <g
       id="g3256"
       transform="translate(-3.111678,91.07617)">
      <g
         style="fill:#b3b3b3;stroke:#ffffff"
         id="g3772"
         transform="matrix(0.60503149,0,0,0.60503149,-64.645587,-7.920215)">
        <path
           id="path3774"
           d="m 415.7826,1001.6686 c 0,4.815 -3.909,8.724 -8.749,8.724 -4.812,0 -8.735,-3.908 -8.735,-8.724 0,-4.84398 3.923,-8.74898 8.735,-8.74898 4.84,0.003 8.749,3.904 8.749,8.74898 z"
           inkscape:connector-curvature="0"
           style="fill:#b3b3b3;stroke:#ffffff" />
        <path
           id="path3776"
           d="m 465.8546,1001.6686 c 0,4.815 -3.907,8.724 -8.749,8.724 -4.812,0 -8.734,-3.908 -8.734,-8.724 0,-4.84398 3.923,-8.74898 8.734,-8.74898 4.842,0.003 8.749,3.904 8.749,8.74898 z"
           inkscape:connector-curvature="0"
           style="fill:#b3b3b3;stroke:#ffffff" />
        <g
           style="fill:#b3b3b3;stroke:#ffffff"
           transform="translate(380.5646,973.60962)"
           id="g3778">
          <path
             id="path3780"
             d="m 31.88,55.158 c -0.673,2.354 -2.836,4.078 -5.406,4.078 -3.107,0 -5.627,-2.52 -5.627,-5.627 0,-3.107 2.52,-5.627 5.627,-5.627 2.634,0 4.84,1.813 5.452,4.258 h 4.871 v -1.582 h 2.196 v 1.582 h 6.891 v -2.305 c 0,-6.291 -3.88,-11.345 -10.06,-11.345 l -19.592,0.018 c -6.779,0 -10.188,5.668 -10.188,11.47 v 26.669 c -0.019,5.259 6.839,5.259 6.839,0 V 50.635 h 2.146 L 15.04,78.238 H 36.798 V 55.158 H 31.88 z"
             inkscape:connector-curvature="0"
             style="fill:#b3b3b3;stroke:#ffffff" />
          <path
             id="path3782"
             d="m 38.993,55.158 v 21.586 c 0,5.222 6.891,5.222 6.891,0 V 55.158 h -6.891 z"
             inkscape:connector-curvature="0"
             style="fill:#b3b3b3;stroke:#ffffff" />
        </g>
        <g
           style="fill:#b3b3b3;stroke:#ffffff"
           transform="translate(380.5646,973.60962)"
           id="g3784">
          <path
             id="path3786"
             d="m 56.116,55.158 v 21.589 c -0.018,5.259 6.838,5.259 6.838,0 V 55.158 h -6.838 z"
             inkscape:connector-curvature="0"
             style="fill:#b3b3b3;stroke:#ffffff" />
          <path
             id="path3788"
             d="m 85.896,38.59 -19.593,0.018 c -6.777,0 -10.188,5.668 -10.188,11.47 v 2.162 h 6.838 V 50.635 H 65.1 v 1.605 h 5.994 c 0.612,-2.445 2.818,-4.258 5.452,-4.258 3.107,0 5.627,2.52 5.627,5.627 0,3.107 -2.52,5.627 -5.627,5.627 -2.569,0 -4.732,-1.725 -5.406,-4.078 h -6.038 l 0.007,23.079 H 86.871 V 50.658 h 2.194 v 26.086 c 0,5.222 6.89,5.222 6.89,0 V 49.936 C 95.959,43.645 92.079,38.59 85.896,38.59 z"
             inkscape:connector-curvature="0"
             style="fill:#b3b3b3;stroke:#ffffff" />
        </g>
      </g>
      <g
         transform="matrix(0.60503149,0,0,0.60503149,-51.513607,3.191465)"
         id="g4688"
         style="fill:#b3b3b3;stroke:#ffffff">
        <path
           style="fill:#b3b3b3;stroke:#ffffff"
           inkscape:connector-curvature="0"
           d="m 415.7826,1001.6686 c 0,4.815 -3.909,8.724 -8.749,8.724 -4.812,0 -8.735,-3.908 -8.735,-8.724 0,-4.84398 3.923,-8.74898 8.735,-8.74898 4.84,0.003 8.749,3.904 8.749,8.74898 z"
           id="path4690" />
        <path
           style="fill:#b3b3b3;stroke:#ffffff"
           inkscape:connector-curvature="0"
           d="m 465.8546,1001.6686 c 0,4.815 -3.907,8.724 -8.749,8.724 -4.812,0 -8.734,-3.908 -8.734,-8.724 0,-4.84398 3.923,-8.74898 8.734,-8.74898 4.842,0.003 8.749,3.904 8.749,8.74898 z"
           id="path4692" />
        <g
           id="g4694"
           transform="translate(380.5646,973.60962)"
           style="fill:#b3b3b3;stroke:#ffffff">
          <path
             style="fill:#b3b3b3;stroke:#ffffff"
             inkscape:connector-curvature="0"
             d="m 31.88,55.158 c -0.673,2.354 -2.836,4.078 -5.406,4.078 -3.107,0 -5.627,-2.52 -5.627,-5.627 0,-3.107 2.52,-5.627 5.627,-5.627 2.634,0 4.84,1.813 5.452,4.258 h 4.871 v -1.582 h 2.196 v 1.582 h 6.891 v -2.305 c 0,-6.291 -3.88,-11.345 -10.06,-11.345 l -19.592,0.018 c -6.779,0 -10.188,5.668 -10.188,11.47 v 26.669 c -0.019,5.259 6.839,5.259 6.839,0 V 50.635 h 2.146 L 15.04,78.238 H 36.798 V 55.158 H 31.88 z"
             id="path4696" />
          <path
             style="fill:#b3b3b3;stroke:#ffffff"
             inkscape:connector-curvature="0"
             d="m 38.993,55.158 v 21.586 c 0,5.222 6.891,5.222 6.891,0 V 55.158 h -6.891 z"
             id="path4698" />
        </g>
        <g
           id="g4700"
           transform="translate(380.5646,973.60962)"
           style="fill:#b3b3b3;stroke:#ffffff">
          <path
             style="fill:#b3b3b3;stroke:#ffffff"
             inkscape:connector-curvature="0"
             d="m 56.116,55.158 v 21.589 c -0.018,5.259 6.838,5.259 6.838,0 V 55.158 h -6.838 z"
             id="path4702" />
          <path
             style="fill:#b3b3b3;stroke:#ffffff"
             inkscape:connector-curvature="0"
             d="m 85.896,38.59 -19.593,0.018 c -6.777,0 -10.188,5.668 -10.188,11.47 v 2.162 h 6.838 V 50.635 H 65.1 v 1.605 h 5.994 c 0.612,-2.445 2.818,-4.258 5.452,-4.258 3.107,0 5.627,2.52 5.627,5.627 0,3.107 -2.52,5.627 -5.627,5.627 -2.569,0 -4.732,-1.725 -5.406,-4.078 h -6.038 l 0.007,23.079 H 86.871 V 50.658 h 2.194 v 26.086 c 0,5.222 6.89,5.222 6.89,0 V 49.936 C 95.959,43.645 92.079,38.59 85.896,38.59 z"
             id="path4704" />
        </g>
      </g>
      <path
         style="fill:#000000;stroke:#ffffff;stroke-width:0.60503149"
         inkscape:connector-curvature="0"
         d="m 184.89567,616.30358 c 0,2.91323 -2.36507,5.2783 -5.29342,5.2783 -2.91141,0 -5.28495,-2.36447 -5.28495,-5.2783 0,-2.93076 2.37354,-5.29341 5.28495,-5.29341 2.92835,0.002 5.29342,2.36205 5.29342,5.29341 z"
         id="path4708" />
      <path
         style="fill:#b3b3b3;stroke:#ffffff;stroke-width:0.60503149"
         inkscape:connector-curvature="0"
         d="m 215.19081,616.30358 c 0,2.91323 -2.36386,5.2783 -5.29342,5.2783 -2.91142,0 -5.28435,-2.36447 -5.28435,-5.2783 0,-2.93076 2.37354,-5.29341 5.28435,-5.29341 2.92956,0.002 5.29342,2.36205 5.29342,5.29341 z"
         id="path4710" />
      <g
         id="g4712"
         transform="matrix(0.60503149,0,0,0.60503149,163.58767,599.32701)"
         style="fill:#000000;stroke:#ffffff">
        <path
           style="fill:#000000;stroke:#ffffff"
           inkscape:connector-curvature="0"
           d="m 31.88,55.158 c -0.673,2.354 -2.836,4.078 -5.406,4.078 -3.107,0 -5.627,-2.52 -5.627,-5.627 0,-3.107 2.52,-5.627 5.627,-5.627 2.634,0 4.84,1.813 5.452,4.258 h 4.871 v -1.582 h 2.196 v 1.582 h 6.891 v -2.305 c 0,-6.291 -3.88,-11.345 -10.06,-11.345 l -19.592,0.018 c -6.779,0 -10.188,5.668 -10.188,11.47 v 26.669 c -0.019,5.259 6.839,5.259 6.839,0 V 50.635 h 2.146 L 15.04,78.238 H 36.798 V 55.158 H 31.88 z"
           id="path4714" />
        <path
           style="fill:#000000;stroke:#ffffff"
           inkscape:connector-curvature="0"
           d="m 38.993,55.158 v 21.586 c 0,5.222 6.891,5.222 6.891,0 V 55.158 h -6.891 z"
           id="path4716" />
      </g>
      <g
         id="g4718"
         transform="matrix(0.60503149,0,0,0.60503149,163.58767,599.32701)"
         style="fill:#b3b3b3;stroke:#ffffff">
        <path
           style="fill:#b3b3b3;stroke:#ffffff"
           inkscape:connector-curvature="0"
           d="m 56.116,55.158 v 21.589 c -0.018,5.259 6.838,5.259 6.838,0 V 55.158 h -6.838 z"
           id="path4720" />
        <path
           style="fill:#b3b3b3;stroke:#ffffff"
           inkscape:connector-curvature="0"
           d="m 85.896,38.59 -19.593,0.018 c -6.777,0 -10.188,5.668 -10.188,11.47 v 2.162 h 6.838 V 50.635 H 65.1 v 1.605 h 5.994 c 0.612,-2.445 2.818,-4.258 5.452,-4.258 3.107,0 5.627,2.52 5.627,5.627 0,3.107 -2.52,5.627 -5.627,5.627 -2.569,0 -4.732,-1.725 -5.406,-4.078 h -6.038 l 0.007,23.079 H 86.871 V 50.658 h 2.194 v 26.086 c 0,5.222 6.89,5.222 6.89,0 V 49.936 C 95.959,43.645 92.079,38.59 85.896,38.59 z"
           id="path4722" />
      </g>
      <path
         id="path4744"
         d="m 200.04796,631.45587 c 0,2.91323 -2.36507,5.2783 -5.29342,5.2783 -2.91141,0 -5.28495,-2.36447 -5.28495,-5.2783 0,-2.93076 2.37354,-5.29341 5.28495,-5.29341 2.92835,0.002 5.29342,2.36205 5.29342,5.29341 z"
         inkscape:connector-curvature="0"
         style="fill:#b3b3b3;stroke:#ffffff;stroke-width:0.60503149" />
      <path
         id="path4746"
         d="m 230.3431,631.45587 c 0,2.91323 -2.36386,5.2783 -5.29342,5.2783 -2.91142,0 -5.28435,-2.36447 -5.28435,-5.2783 0,-2.93076 2.37354,-5.29341 5.28435,-5.29341 2.92956,0.002 5.29342,2.36205 5.29342,5.29341 z"
         inkscape:connector-curvature="0"
         style="fill:#000000;stroke:#ffffff;stroke-width:0.60503149" />
      <g
         style="fill:#b3b3b3;stroke:#ffffff"
         transform="matrix(0.60503149,0,0,0.60503149,178.73996,614.4793)"
         id="g4748">
        <path
           id="path4750"
           d="m 31.88,55.158 c -0.673,2.354 -2.836,4.078 -5.406,4.078 -3.107,0 -5.627,-2.52 -5.627,-5.627 0,-3.107 2.52,-5.627 5.627,-5.627 2.634,0 4.84,1.813 5.452,4.258 h 4.871 v -1.582 h 2.196 v 1.582 h 6.891 v -2.305 c 0,-6.291 -3.88,-11.345 -10.06,-11.345 l -19.592,0.018 c -6.779,0 -10.188,5.668 -10.188,11.47 v 26.669 c -0.019,5.259 6.839,5.259 6.839,0 V 50.635 h 2.146 L 15.04,78.238 H 36.798 V 55.158 H 31.88 z"
           inkscape:connector-curvature="0"
           style="fill:#b3b3b3;stroke:#ffffff" />
        <path
           id="path4752"
           d="m 38.993,55.158 v 21.586 c 0,5.222 6.891,5.222 6.891,0 V 55.158 h -6.891 z"
           inkscape:connector-curvature="0"
           style="fill:#b3b3b3;stroke:#ffffff" />
      </g>
      <g
         style="fill:#000000;stroke:#ffffff"
         transform="matrix(0.60503149,0,0,0.60503149,178.73996,614.4793)"
         id="g4754">
        <path
           id="path4756"
           d="m 56.116,55.158 v 21.589 c -0.018,5.259 6.838,5.259 6.838,0 V 55.158 h -6.838 z"
           inkscape:connector-curvature="0"
           style="fill:#000000;stroke:#ffffff" />
        <path
           id="path4758"
           d="m 85.896,38.59 -19.593,0.018 c -6.777,0 -10.188,5.668 -10.188,11.47 v 2.162 h 6.838 V 50.635 H 65.1 v 1.605 h 5.994 c 0.612,-2.445 2.818,-4.258 5.452,-4.258 3.107,0 5.627,2.52 5.627,5.627 0,3.107 -2.52,5.627 -5.627,5.627 -2.569,0 -4.732,-1.725 -5.406,-4.078 h -6.038 l 0.007,23.079 H 86.871 V 50.658 h 2.194 v 26.086 c 0,5.222 6.89,5.222 6.89,0 V 49.936 C 95.959,43.645 92.079,38.59 85.896,38.59 z"
           inkscape:connector-curvature="0"
           style="fill:#000000;stroke:#ffffff" />
      </g>
    </g>
    <g
       id="g4822"
       transform="matrix(0.78391946,-0.62086252,0.62086252,0.78391946,52.347065,473.46137)">
      <path
         style="fill:none"
         inkscape:connector-curvature="0"
         d="m 61.192,69.118 c 0,-0.482 -10e-4,-0.953 0,-1.425 0.007,-4.655 0.057,-9.311 0.004,-13.966 -0.038,-3.369 -0.13,-6.741 -0.345,-10.102 -0.517,-8.09 -0.957,-16.179 -0.779,-24.291 0.078,-3.531 0.102,-7.063 0.129,-10.594 0.003,-0.441 0.173,-0.955 -0.339,-1.335 -1.587,0.735 -3.047,1.607 -4.09,3.127 -0.485,0.707 -1.234,1.252 -1.924,1.794 -0.934,0.734 -1.926,1.393 -3.197,2.301 C 50.003,14.024 49.266,13.412 48.615,12.719 47.3,11.316 46.052,9.851 44.737,8.448 44.029,7.691 43.229,7.029 42.068,6.884 c -0.404,2.296 -0.729,4.495 -0.235,6.738 0.557,2.529 0.484,5.102 0.482,7.669 -0.002,3.211 -0.003,6.421 0.017,9.632 0.005,0.881 0.069,1.763 0.132,2.642 0.104,1.436 0.26,2.868 0.34,4.305 0.253,4.545 -0.527,9.123 0.418,13.648 0.032,0.155 0.012,0.321 0.013,0.481 0.008,2.809 0.031,5.618 0.014,8.428 -0.004,0.717 -0.124,1.434 -0.207,2.149 -0.25,2.144 -0.503,4.287 -0.771,6.43 -0.037,0.302 -0.169,0.592 -0.278,0.955 -0.433,0.083 -0.813,0.208 -1.196,0.219 -0.72,0.023 -1.481,0.123 -2.157,-0.06 -2.222,-0.603 -4.471,-0.271 -6.707,-0.313 -0.337,-0.007 -0.678,0.256 -1.055,0.41 0.147,0.349 0.195,0.599 0.337,0.773 0.454,0.56 0.901,1.135 1.424,1.625 1.532,1.436 2.867,3.014 3.91,4.849 0.392,0.691 0.891,1.351 1.457,1.907 2.862,2.81 5.736,5.607 8.658,8.354 1.577,1.482 3.258,2.854 4.892,4.274 0.351,0.305 0.706,0.606 1.138,0.977 1.711,-1.748 3.144,-3.576 4.448,-5.499 3.6,-5.313 7.163,-10.651 10.741,-15.978 0.529,-0.788 1.139,-1.532 1.485,-2.636 -2.774,0.146 -5.399,1.276 -8.176,0.255 z"
         id="path4824" />
      <path
         style="fill:#000000;fill-rule:evenodd"
         inkscape:connector-curvature="0"
         clip-rule="evenodd"
         d="m 68.873,67.361 c -1.578,0.27 -3.146,0.599 -4.724,0.862 -0.435,0.072 -0.894,0.001 -1.444,-0.006 C 62.675,67.265 62.632,66.472 62.629,65.68 62.611,61.503 62.635,57.326 62.58,53.15 62.547,50.662 62.439,48.174 62.285,45.691 62.087,42.486 61.794,39.288 61.57,36.085 61.413,33.844 61.294,31.599 61.174,29.356 61.093,27.834 61.011,26.309 60.984,24.786 60.882,19.004 60.808,13.222 60.706,7.439 60.699,6.996 60.855,6.455 60.161,6.126 57.091,7.986 54.147,10.147 51.168,12.581 50.401,11.89 49.859,11.293 49.212,10.845 48.213,10.153 47.358,9.362 46.595,8.4 45.431,6.932 43.757,6.063 42.153,5.162 41.361,4.717 40.496,5.237 40.431,6.169 c -0.096,1.358 -0.136,2.726 -0.083,4.085 0.069,1.764 0.323,3.521 0.373,5.285 0.134,4.655 0.188,9.314 0.297,13.97 0.115,4.897 0.255,9.794 0.388,14.69 0.016,0.562 0.056,1.123 0.09,1.683 0.133,2.16 0.287,4.319 0.396,6.48 0.065,1.283 0.01,2.572 0.094,3.853 0.228,3.469 -0.085,6.896 -0.721,10.301 -0.142,0.761 -0.296,1.52 -0.45,2.303 -0.785,0 -1.452,0.132 -2.042,-0.025 -1.579,-0.424 -3.18,-0.384 -4.783,-0.43 -1.036,-0.03 -2.078,0.074 -3.087,-0.346 -0.717,-0.299 -1.451,-0.037 -2.074,0.33 -0.369,0.218 -0.61,0.654 -0.947,1.035 0.425,0.543 0.722,1.026 1.117,1.409 3.46,3.367 6.529,7.085 9.697,10.716 2.533,2.904 5.105,5.765 8.146,8.182 1.753,1.393 3.302,3.04 4.963,4.55 0.327,0.297 0.75,0.491 1.173,0.76 1.98,-2.307 3.899,-4.458 5.467,-6.884 4.401,-6.808 8.841,-13.589 13.61,-20.148 0.075,-0.103 0.034,-0.292 0.065,-0.64 -1.078,-0.192 -2.165,-0.153 -3.247,0.033 z m -0.985,4.137 c -3.579,5.327 -7.141,10.665 -10.741,15.978 -1.304,1.923 -2.737,3.752 -4.448,5.499 -0.433,-0.371 -0.787,-0.672 -1.138,-0.977 -1.635,-1.42 -3.316,-2.792 -4.892,-4.274 -2.922,-2.747 -5.796,-5.544 -8.658,-8.354 -0.566,-0.556 -1.065,-1.216 -1.457,-1.907 -1.043,-1.835 -2.377,-3.413 -3.91,-4.849 -0.523,-0.49 -0.97,-1.065 -1.424,-1.625 -0.141,-0.174 -0.19,-0.424 -0.337,-0.773 0.376,-0.154 0.718,-0.417 1.055,-0.41 2.236,0.042 4.484,-0.29 6.707,0.313 0.676,0.183 1.437,0.083 2.157,0.06 0.383,-0.012 0.763,-0.136 1.196,-0.219 0.108,-0.362 0.24,-0.653 0.278,-0.955 0.268,-2.142 0.52,-4.286 0.771,-6.43 0.083,-0.715 0.203,-1.433 0.207,-2.149 0.017,-2.809 -0.006,-5.619 -0.014,-8.428 -0.001,-0.16 0.019,-0.326 -0.013,-0.481 C 42.282,46.992 43.062,42.414 42.809,37.869 42.729,36.432 42.573,35 42.469,33.564 42.405,32.685 42.342,31.803 42.337,30.922 42.318,27.711 42.319,24.501 42.32,21.29 c 0.002,-2.567 0.074,-5.14 -0.482,-7.669 -0.494,-2.243 -0.169,-4.442 0.235,-6.738 1.162,0.145 1.961,0.807 2.669,1.564 1.314,1.404 2.563,2.868 3.878,4.271 0.65,0.693 1.388,1.305 2.036,1.908 1.271,-0.908 2.263,-1.568 3.197,-2.301 0.689,-0.542 1.439,-1.087 1.924,-1.794 1.043,-1.52 2.503,-2.392 4.09,-3.127 0.512,0.38 0.342,0.893 0.339,1.335 -0.028,3.531 -0.052,7.064 -0.129,10.594 -0.178,8.112 0.262,16.201 0.779,24.291 0.215,3.361 0.307,6.734 0.345,10.102 0.053,4.654 0.002,9.311 -0.004,13.966 -0.001,0.472 0,0.944 0,1.425 2.777,1.021 5.402,-0.108 8.18,-0.256 -0.35,1.105 -0.96,1.849 -1.489,2.637 z"
         id="path4826" />
    </g>
    <text
       xml:space="preserve"
       style="font-size:12px;font-style:normal;font-variant:normal;font-weight:normal;font-stretch:normal;text-align:end;line-height:125%;letter-spacing:0px;word-spacing:0px;writing-mode:lr-tb;text-anchor:end;fill:#000000;fill-opacity:1;stroke:none;font-family:Calibri;-inkscape-font-specification:Calibri"
       x="97.434486"
       y="654.31628"
       id="text4954"
       sodipodi:linespacing="125%"><tspan
         id="tspan4958"
         sodipodi:role="line"
         x="97.434486"
         y="654.31628"
         style="font-size:18px;font-style:normal;font-variant:normal;font-weight:normal;font-stretch:normal;text-align:start;text-anchor:start;font-family:Gill Sans MT;-inkscape-font-specification:Gill Sans MT"><tspan
   id="tspan5806"
   style="font-weight:bold">4.</tspan> Interested</tspan><tspan
         sodipodi:role="line"
         x="97.434486"
         y="676.81628"
         style="font-size:18px;font-style:normal;font-variant:normal;font-weight:normal;font-stretch:normal;text-align:start;text-anchor:start;font-family:Gill Sans MT;-inkscape-font-specification:Gill Sans MT"
         id="tspan4962">Individuals give </tspan><tspan
         sodipodi:role="line"
         x="97.434486"
         y="699.31628"
         style="font-size:18px;font-style:normal;font-variant:normal;font-weight:normal;font-stretch:normal;text-align:start;text-anchor:start;font-family:Gill Sans MT;-inkscape-font-specification:Gill Sans MT"
         id="tspan5199">feedback</tspan></text>
    <g
       transform="matrix(0.81113295,0,0,0.81113295,505.96417,627.7318)"
       id="g4724">
      <path
         inkscape:connector-curvature="0"
         style="fill:#000000;fill-opacity:1;stroke:none"
         d="m 30.105616,56.889022 0,20.49045 c 0,0.76062 0.610226,1.37083 1.37084,1.37083 l 3.206643,0 c 0.76068,0 1.370841,-0.61021 1.370841,-1.37083 l 0,-20.47445 -5.948324,-0.0159 z m 8.225041,0.0241 0,20.58665 c 0,0.76067 0.618179,1.37083 1.378856,1.37083 l 3.198627,0 c 0.76068,0 1.378857,-0.61016 1.378857,-1.37083 l 0,-20.57862 -5.95634,-0.008 z"
         id="path4726" />
      <path
         inkscape:connector-curvature="0"
         style="fill:#000000;fill-opacity:1;stroke:none"
         d="m 61.667006,12.180372 c -0.09092,0.009 -0.181737,0.028 -0.272565,0.0561 l -3.350943,1.03415 1.178442,4.4332 3.527308,-1.09026 c 0.726593,-0.22477 1.130621,-0.9969 0.905877,-1.72358 l -0.54513,-1.74761 c -0.196676,-0.63582 -0.806509,-1.02531 -1.442989,-0.962 z"
         id="path4728" />
      <path
         inkscape:connector-curvature="0"
         style="fill:#000000;fill-opacity:1;stroke:none"
         d="m 22.537937,39.156282 -0.0962,0.85776 c -0.08545,0.75585 0.454707,1.42973 1.210508,1.51515 l 1.81977,0.20841 c 0.755796,0.0854 1.429694,-0.45468 1.51514,-1.2105 l 0.0962,-0.88182 -4.545417,-0.489 z"
         id="path4730" />
      <path
         inkscape:connector-curvature="0"
         style="text-indent:0;text-transform:none;direction:ltr;block-progression:tb;baseline-shift:baseline;color:#000000;fill:#000000;fill-opacity:1;fill-rule:nonzero;stroke:none;marker:none;visibility:visible;display:inline;overflow:visible;enable-background:accumulate"
         d="m 34.330369,14.569322 -0.312648,0.0321 c 0,0 -4.480336,0.47399 -7.319164,0.72952 l -0.008,0 c -1.234029,0.0892 -2.091514,0.25292 -2.629448,0.88181 -0.53927,0.63047 -0.660999,1.57931 -0.665378,3.10244 -0.01657,5.75046 -1.827787,19.87318 -1.827787,19.87318 l -0.0481,0.34471 0.352731,0.0241 5.611626,0.43292 0.312648,0.0241 0.0481,-0.30464 2.284733,-15.87288 0.416864,0.0401 -0.953977,14.61429 -4.505334,18.36606 -0.104216,0.40884 0.42488,0 11.511851,-0.0802 0.328681,0 0,-0.32867 0,-0.16836 -0.625295,-0.0481 0,-6.59768 -0.04008,6.47742 -10.750273,0.0802 4.417151,-17.98126 0,-0.0241 0.008,-0.0321 0.978026,-14.95897 0.02404,-0.32067 -0.320664,-0.0321 -1.058192,-0.10423 -0.312648,-0.0321 -0.0481,0.31264 -2.29275,15.87288 -4.962281,-0.37676 c 0.07713,-0.59954 1.779146,-13.85355 1.79572,-19.60863 0.0043,-1.48324 0.161169,-2.26751 0.505047,-2.66952 0.343878,-0.40206 0.98075,-0.56314 2.180518,-0.64936 2.724995,-0.24511 6.6588,-0.66698 7.022549,-0.70546 l 2.910029,18.93523 0.344714,-2.13242 -2.645481,-17.21164 -0.0481,-0.31266 z"
         visibility="visible"
         display="inline"
         overflow="visible"
         id="path4732" />
      <path
         inkscape:connector-curvature="0"
         style="text-indent:0;text-transform:none;direction:ltr;block-progression:tb;baseline-shift:baseline;color:#000000;fill:#000000;fill-opacity:1;fill-rule:nonzero;stroke:none;marker:none;visibility:visible;display:inline;overflow:visible;enable-background:accumulate"
         d="m 58.540528,12.340712 -0.360747,0.12826 c 0,0 -5.946834,2.05359 -11.664167,2.78978 -2.258439,-0.11941 -4.650898,-0.40606 -6.966433,-0.65736 l -0.312648,-0.0321 -0.0481,0.31266 -2.998212,19.5044 0,0.0241 0,0.0241 0.128266,22.41444 0,0.32869 0.328681,0 11.51185,0.0882 0.424881,0.008 -0.104216,-0.41686 -4.505335,-18.37407 -0.953976,-14.60628 0.729511,-0.0721 0.04008,0 0.04008,-0.0159 c 5.13336,-1.80285 10.461993,-3.47489 15.688505,-5.17873 l 0.280581,-0.0882 -0.05612,-0.2886 -1.122325,-5.51543 -0.08017,-0.37676 z m -0.505046,0.86579 0.994059,4.86607 c -5.12226,1.66758 -10.344837,3.3108 -15.391889,5.08256 l -1.002076,0.0962 -0.320665,0.0321 0.02404,0.32067 0.978027,14.95896 0,0.0241 0.008,0.0321 4.409135,17.98927 -10.758289,-0.0882 -0.128266,-22.03765 2.950112,-19.19176 c 2.228756,0.24363 4.526971,0.51078 6.725935,0.6253 l 0.03207,0.008 0.02404,-0.008 c 5.531419,-0.70998 10.905837,-2.52243 11.455734,-2.70962 z"
         visibility="visible"
         display="inline"
         overflow="visible"
         id="path4734" />
      <path
         inkscape:connector-curvature="0"
         d="m 36.513359,0.47104847 c -3.791507,0 -6.865137,3.07360403 -6.865137,6.86511403 0,0.007 -7e-6,0.009 0,0.0139 -0.0053,0 -0.0092,0 -0.01429,0 -0.06327,2.16445 -0.205731,3.6352295 -0.400464,5.0487095 -0.18392,0.60024 -1.215698,-0.0432 -2.131053,-0.50051 0.424757,2.11387 1.198556,2.75525 2.274077,2.7603 0.895939,-0.0326 1.93178,-0.85327 1.845005,-2.7603 2.57e-4,-0.0598 -7.69e-4,-0.13779 0,-0.20028 1.259172,1.52575 3.159155,2.5029 5.291883,2.5029 2.118171,0 4.003952,-0.96645 5.26327,-2.47432 7.69e-4,0.0532 -2.57e-4,0.12036 0,0.1717 -0.08677,1.90703 0.963368,2.728 1.859307,2.7603 1.075521,-0.007 1.835016,-0.64643 2.259773,-2.7603 -0.915348,0.4576 -1.947126,1.10075 -2.131051,0.50051 -0.189177,-1.37313 -0.334294,-2.8128095 -0.400466,-4.8770995 0.0021,-0.0625 0.01429,-0.12298 0.01429,-0.1859 0,-3.79151 -3.073625,-6.86512003 -6.86514,-6.86512003 z"
         style="fill:#000000;fill-opacity:1;stroke:none"
         id="path4736" />
      <path
         inkscape:connector-curvature="0"
         style="text-indent:0;text-transform:none;direction:ltr;block-progression:tb;baseline-shift:baseline;color:#000000;fill:#000000;fill-opacity:1;stroke:none;marker:none;visibility:visible;display:inline;overflow:visible;enable-background:accumulate"
         d="m 61.410474,9.8635625 a 0.25655715,0.25655715 0 0 0 -0.01603,0.008 l -2.974162,0.8016695 a 0.25655715,0.25655715 0 0 0 -0.176365,0.31263 l 2.332833,8.60986 -0.961993,4.18465 a 0.25655715,0.25655715 0 0 0 0.320664,0.30466 l 6.934366,-1.87592 a 0.25655715,0.25655715 0 0 0 0.120249,-0.42486 l -2.950111,-3.13456 -2.332833,-8.60181 A 0.25655715,0.25655715 0 0 0 61.410474,9.8634825 z m -0.136282,0.5691895 2.29275,8.41744 a 0.25655715,0.25655715 0 0 0 0.05612,0.10423 l 2.69358,2.86992 -6.100639,1.65145 0.873811,-3.83196 a 0.25655715,0.25655715 0 0 0 0,-0.12024 l -2.292751,-8.41744 2.477133,-0.6734 z"
         visibility="visible"
         display="inline"
         overflow="visible"
         id="path4738" />
      <path
         inkscape:connector-curvature="0"
         style="fill:#000000;stroke:none"
         d="m 60.639475,20.623722 4.859465,0.0414 1.240715,1.24071 -6.844612,1.90244 z"
         id="path4740" />
    </g>
    <text
       sodipodi:linespacing="125%"
       id="text4828"
       y="622.4505"
       x="385.37741"
       style="font-size:12px;font-style:normal;font-variant:normal;font-weight:normal;font-stretch:normal;text-align:end;line-height:125%;letter-spacing:0px;word-spacing:0px;writing-mode:lr-tb;text-anchor:end;fill:#000000;fill-opacity:1;stroke:none;font-family:Calibri;-inkscape-font-specification:Calibri"
       xml:space="preserve"><tspan
         id="tspan4832"
         style="font-size:18px;font-style:normal;font-variant:normal;font-weight:normal;font-stretch:normal;text-align:start;text-anchor:start;font-family:Gill Sans MT;-inkscape-font-specification:Gill Sans MT"
         y="622.4505"
         x="385.37741"
         sodipodi:role="line"><tspan
   id="tspan5798"
   style="font-weight:bold">3.</tspan> Researcher</tspan><tspan
         style="font-size:18px;font-style:normal;font-variant:normal;font-weight:normal;font-stretch:normal;text-align:start;text-anchor:start;font-family:Gill Sans MT;-inkscape-font-specification:Gill Sans MT"
         y="644.9505"
         x="385.37741"
         sodipodi:role="line"
         id="tspan4836">proposes a study</tspan><tspan
         style="font-size:18px;font-style:normal;font-variant:normal;font-weight:normal;font-stretch:normal;text-align:start;text-anchor:start;font-family:Gill Sans MT;-inkscape-font-specification:Gill Sans MT"
         y="667.4505"
         x="385.37741"
         sodipodi:role="line"
         id="tspan4976" /></text>
    <g
       transform="matrix(0.96394381,0.26610587,0.26610587,-0.96394381,402.97067,785.49547)"
       id="g4968">
      <path
         id="path4970"
         d="M 73.715,71.404 C 71.914,67.631 70.125,63.85 68.269,60.103 67.527,58.607 66.716,57.13 65.767,55.76 63.445,52.411 61.126,49.053 58.623,45.84 54.318,40.317 49.893,34.887 45.478,29.452 44.244,27.934 43.123,26.268 41.138,25.259 46.873,22.307 53.135,22.172 59.275,20.602 58.884,20.247 58.645,19.893 58.313,19.746 51.708,16.84 45.061,14.074 37.974,12.484 33.284,11.432 28.649,10.127 23.986,8.948 22.587,8.595 21.194,8.177 19.492,7.998 c 0.72,10.038 1.427,19.892 2.155,30.033 3.013,-1.898 5.767,-3.873 8.507,-5.924 2.462,0.917 4.596,2.189 6.559,3.746 2.128,1.688 4.209,3.433 6.314,5.149 6.268,5.109 11.746,10.981 16.692,17.363 1.728,2.229 3.37,4.531 5.189,6.683 2.989,3.531 5.472,7.377 7.712,11.411 1.826,3.29 3.788,6.502 5.705,9.741 0.182,0.307 0.468,0.552 0.718,0.841 0.624,-0.779 0.175,-1.362 0.013,-1.916 -1.384,-4.727 -3.222,-9.28 -5.341,-13.721 z"
         inkscape:connector-curvature="0"
         style="fill:none" />
      <path
         id="path4972"
         d="M 82.261,88.786 C 81.159,83.547 79.393,78.512 77.255,73.615 75.371,69.302 73.413,65.019 71.384,60.771 70.485,58.891 69.445,57.055 68.271,55.333 63.904,48.938 59.378,42.659 54.007,37.04 c -0.793,-0.83 -1.498,-1.745 -2.228,-2.635 -2.312,-2.823 -4.617,-5.652 -7.071,-8.657 0.703,-0.28 1.224,-0.592 1.784,-0.692 4.627,-0.822 9.265,-1.584 13.89,-2.415 1.416,-0.255 2.804,-0.667 4.542,-1.09 -0.589,-0.612 -0.851,-1.083 -1.247,-1.27 C 59.903,18.49 56.128,16.696 52.312,14.997 44.219,11.394 35.554,9.801 26.975,7.919 25.034,7.493 23.09,7.069 21.137,6.707 19.873,6.473 18.747,6.033 17.999,5 c -0.756,0.337 -0.606,0.862 -0.571,1.38 0.146,2.187 0.242,4.378 0.405,6.563 0.232,3.123 0.386,6.259 0.785,9.361 0.79,6.13 1.129,12.255 0.4,18.412 -0.037,0.312 -0.145,0.653 -0.055,0.927 0.118,0.356 0.34,0.74 0.634,0.95 0.18,0.129 0.65,0.056 0.866,-0.1 1.354,-0.972 2.685,-1.976 3.999,-3.003 2.386,-1.863 4.753,-3.749 7.259,-5.729 0.554,0.312 0.856,0.421 1.08,0.617 3.539,3.101 7.087,6.19 10.596,9.325 7.049,6.299 13.321,13.293 18.591,21.158 1.055,1.573 2.291,2.962 3.669,4.267 0.972,0.921 1.854,2 2.537,3.151 3.042,5.127 6.033,10.284 8.96,15.479 0.603,1.068 0.924,2.318 1.233,3.521 0.338,1.316 0.579,2.647 1.471,3.721 2.169,-0.255 2.639,-0.527 2.73,-2.181 0.072,-1.337 -0.051,-2.721 -0.327,-4.033 z M 79.042,87.041 C 78.792,86.752 78.506,86.507 78.324,86.2 76.407,82.961 74.445,79.749 72.619,76.459 70.38,72.425 67.896,68.579 64.907,65.048 63.087,62.896 61.445,60.595 59.718,58.365 54.772,51.982 49.294,46.111 43.026,41.002 40.921,39.286 38.84,37.541 36.712,35.853 34.749,34.296 32.615,33.024 30.153,32.107 27.412,34.158 24.658,36.133 21.646,38.031 20.918,27.89 20.211,18.037 19.491,7.998 c 1.703,0.179 3.095,0.596 4.494,0.95 4.663,1.179 9.298,2.485 13.988,3.536 7.087,1.59 13.734,4.356 20.339,7.262 0.332,0.146 0.572,0.5 0.962,0.856 -6.14,1.57 -12.401,1.705 -18.137,4.657 1.985,1.009 3.106,2.674 4.34,4.193 4.416,5.436 8.841,10.865 13.145,16.388 2.503,3.213 4.822,6.571 7.144,9.92 0.949,1.369 1.76,2.847 2.502,4.343 1.856,3.747 3.645,7.528 5.446,11.301 2.119,4.441 3.957,8.994 5.34,13.72 0.162,0.555 0.612,1.138 -0.012,1.917 z"
         clip-rule="evenodd"
         inkscape:connector-curvature="0"
         style="fill:#000000;fill-rule:evenodd" />
    </g>
    <g
       id="g5201"
       transform="matrix(-0.96394381,-0.26610587,-0.26610587,0.96394381,498.53813,665.36973)">
      <path
         style="fill:none"
         inkscape:connector-curvature="0"
         d="M 73.715,71.404 C 71.914,67.631 70.125,63.85 68.269,60.103 67.527,58.607 66.716,57.13 65.767,55.76 63.445,52.411 61.126,49.053 58.623,45.84 54.318,40.317 49.893,34.887 45.478,29.452 44.244,27.934 43.123,26.268 41.138,25.259 46.873,22.307 53.135,22.172 59.275,20.602 58.884,20.247 58.645,19.893 58.313,19.746 51.708,16.84 45.061,14.074 37.974,12.484 33.284,11.432 28.649,10.127 23.986,8.948 22.587,8.595 21.194,8.177 19.492,7.998 c 0.72,10.038 1.427,19.892 2.155,30.033 3.013,-1.898 5.767,-3.873 8.507,-5.924 2.462,0.917 4.596,2.189 6.559,3.746 2.128,1.688 4.209,3.433 6.314,5.149 6.268,5.109 11.746,10.981 16.692,17.363 1.728,2.229 3.37,4.531 5.189,6.683 2.989,3.531 5.472,7.377 7.712,11.411 1.826,3.29 3.788,6.502 5.705,9.741 0.182,0.307 0.468,0.552 0.718,0.841 0.624,-0.779 0.175,-1.362 0.013,-1.916 -1.384,-4.727 -3.222,-9.28 -5.341,-13.721 z"
         id="path5203" />
      <path
         style="fill:#000000;fill-rule:evenodd"
         inkscape:connector-curvature="0"
         clip-rule="evenodd"
         d="M 82.261,88.786 C 81.159,83.547 79.393,78.512 77.255,73.615 75.371,69.302 73.413,65.019 71.384,60.771 70.485,58.891 69.445,57.055 68.271,55.333 63.904,48.938 59.378,42.659 54.007,37.04 c -0.793,-0.83 -1.498,-1.745 -2.228,-2.635 -2.312,-2.823 -4.617,-5.652 -7.071,-8.657 0.703,-0.28 1.224,-0.592 1.784,-0.692 4.627,-0.822 9.265,-1.584 13.89,-2.415 1.416,-0.255 2.804,-0.667 4.542,-1.09 -0.589,-0.612 -0.851,-1.083 -1.247,-1.27 C 59.903,18.49 56.128,16.696 52.312,14.997 44.219,11.394 35.554,9.801 26.975,7.919 25.034,7.493 23.09,7.069 21.137,6.707 19.873,6.473 18.747,6.033 17.999,5 c -0.756,0.337 -0.606,0.862 -0.571,1.38 0.146,2.187 0.242,4.378 0.405,6.563 0.232,3.123 0.386,6.259 0.785,9.361 0.79,6.13 1.129,12.255 0.4,18.412 -0.037,0.312 -0.145,0.653 -0.055,0.927 0.118,0.356 0.34,0.74 0.634,0.95 0.18,0.129 0.65,0.056 0.866,-0.1 1.354,-0.972 2.685,-1.976 3.999,-3.003 2.386,-1.863 4.753,-3.749 7.259,-5.729 0.554,0.312 0.856,0.421 1.08,0.617 3.539,3.101 7.087,6.19 10.596,9.325 7.049,6.299 13.321,13.293 18.591,21.158 1.055,1.573 2.291,2.962 3.669,4.267 0.972,0.921 1.854,2 2.537,3.151 3.042,5.127 6.033,10.284 8.96,15.479 0.603,1.068 0.924,2.318 1.233,3.521 0.338,1.316 0.579,2.647 1.471,3.721 2.169,-0.255 2.639,-0.527 2.73,-2.181 0.072,-1.337 -0.051,-2.721 -0.327,-4.033 z M 79.042,87.041 C 78.792,86.752 78.506,86.507 78.324,86.2 76.407,82.961 74.445,79.749 72.619,76.459 70.38,72.425 67.896,68.579 64.907,65.048 63.087,62.896 61.445,60.595 59.718,58.365 54.772,51.982 49.294,46.111 43.026,41.002 40.921,39.286 38.84,37.541 36.712,35.853 34.749,34.296 32.615,33.024 30.153,32.107 27.412,34.158 24.658,36.133 21.646,38.031 20.918,27.89 20.211,18.037 19.491,7.998 c 1.703,0.179 3.095,0.596 4.494,0.95 4.663,1.179 9.298,2.485 13.988,3.536 7.087,1.59 13.734,4.356 20.339,7.262 0.332,0.146 0.572,0.5 0.962,0.856 -6.14,1.57 -12.401,1.705 -18.137,4.657 1.985,1.009 3.106,2.674 4.34,4.193 4.416,5.436 8.841,10.865 13.145,16.388 2.503,3.213 4.822,6.571 7.144,9.92 0.949,1.369 1.76,2.847 2.502,4.343 1.856,3.747 3.645,7.528 5.446,11.301 2.119,4.441 3.957,8.994 5.34,13.72 0.162,0.555 0.612,1.138 -0.012,1.917 z"
         id="path5205" />
    </g>
    <g
       id="g5348"
       transform="translate(395.58119,870.76134)">
      <path
         style="fill:#000000"
         inkscape:connector-curvature="0"
         d="M 88.504,70.75 H 17.107 c -0.98,0 -1.774,0.793 -1.774,1.774 0,0.98 0.793,1.774 1.774,1.774 h 71.396 c 0.98,0 1.774,-0.793 1.774,-1.774 0,-0.98 -0.793,-1.774 -1.773,-1.774 z"
         id="path5350" />
      <path
         style="fill:#000000"
         inkscape:connector-curvature="0"
         d="m 26.046,40.73 9.132,25.277 c 0.263,0.721 0.942,1.171 1.67,1.171 0.201,0 0.405,-0.035 0.603,-0.104 0.922,-0.336 1.4,-1.351 1.067,-2.273 L 29.792,40.65 54.013,31.95 67.474,64.857 c 0.281,0.686 0.942,1.102 1.642,1.102 0.225,0 0.45,-0.042 0.672,-0.132 0.908,-0.371 1.341,-1.407 0.97,-2.314 L 56.654,29.034 c -0.018,-0.045 -0.045,-0.083 -0.067,-0.125 -0.027,-0.053 -0.052,-0.107 -0.083,-0.156 -0.034,-0.052 -0.073,-0.099 -0.111,-0.147 -0.033,-0.041 -0.064,-0.084 -0.1,-0.122 -0.049,-0.052 -0.104,-0.096 -0.159,-0.141 -0.031,-0.025 -0.06,-0.053 -0.092,-0.076 -0.07,-0.05 -0.144,-0.091 -0.219,-0.13 -0.022,-0.011 -0.043,-0.025 -0.065,-0.035 -0.09,-0.042 -0.183,-0.074 -0.278,-0.1 -0.012,-0.003 -0.023,-0.008 -0.034,-0.011 -0.102,-0.026 -0.205,-0.041 -0.311,-0.049 -0.009,-0.001 -0.017,-0.002 -0.026,-0.003 -0.098,-0.005 -0.197,0 -0.297,0.011 -0.021,0.002 -0.041,0.002 -0.062,0.005 -0.076,0.011 -0.152,0.032 -0.227,0.054 -0.036,0.01 -0.072,0.013 -0.108,0.026 L 27.118,37.84 c -0.827,0.298 -1.291,1.146 -1.142,1.982 -0.054,0.296 -0.039,0.606 0.07,0.908 z"
         id="path5352" />
      <path
         style="fill:#000000"
         inkscape:connector-curvature="0"
         d="m 51.357,43.304 -4.529,11.887 -4.344,-3.527 c -0.762,-0.624 -1.878,-0.502 -2.494,0.256 -0.62,0.762 -0.502,1.878 0.256,2.494 l 6.247,5.072 c 0.013,0.011 0.03,0.014 0.044,0.025 0.134,0.102 0.279,0.193 0.445,0.256 0.007,0.003 0.015,0.004 0.022,0.006 0.028,0.01 0.055,0.015 0.083,0.024 0.174,0.055 0.349,0.088 0.525,0.088 0.159,0 0.315,-0.029 0.468,-0.071 0.044,-0.012 0.085,-0.028 0.128,-0.043 0.11,-0.039 0.215,-0.09 0.317,-0.152 0.04,-0.024 0.08,-0.045 0.118,-0.072 0.125,-0.09 0.243,-0.192 0.345,-0.317 10e-4,-10e-4 10e-4,-0.002 0.002,-0.003 0.01,-0.012 0.016,-0.026 0.025,-0.039 0.097,-0.127 0.171,-0.263 0.229,-0.404 0.006,-0.016 0.018,-0.027 0.024,-0.043 l 5.401,-14.177 c 0.35,-0.915 -0.107,-1.94 -1.026,-2.287 -0.907,-0.345 -1.939,0.106 -2.286,1.027 z"
         id="path5354" />
      <path
         style="fill:#000000"
         inkscape:connector-curvature="0"
         d="M 87.963,76.785 H 57.216 c -0.98,0 -1.774,0.793 -1.774,1.774 0,0.98 0.793,1.774 1.774,1.774 h 30.747 c 0.98,0 1.774,-0.793 1.774,-1.774 0,-0.98 -0.793,-1.774 -1.774,-1.774 z"
         id="path5356" />
    </g>
    <text
       sodipodi:linespacing="125%"
       id="text5227"
       y="843.36572"
       x="324.71951"
       style="font-size:12px;font-style:normal;font-variant:normal;font-weight:normal;font-stretch:normal;text-align:end;line-height:125%;letter-spacing:0px;word-spacing:0px;writing-mode:lr-tb;text-anchor:end;fill:#000000;fill-opacity:1;stroke:none;font-family:Calibri;-inkscape-font-specification:Calibri"
       xml:space="preserve"><tspan
         style="font-size:18px;text-align:start;text-anchor:start;font-family:Gill Sans MT;-inkscape-font-specification:Gill Sans MT"
         y="843.36572"
         x="324.71951"
         sodipodi:role="line"
         id="tspan5250"><tspan
   style="font-weight:bold"
   id="tspan5804">5.</tspan> Twins vote postively </tspan><tspan
         style="font-size:18px;text-align:start;text-anchor:start;font-family:Gill Sans MT;-inkscape-font-specification:Gill Sans MT"
         y="865.86572"
         x="324.71951"
         sodipodi:role="line"
         id="tspan5242">on study: Researcher can </tspan><tspan
         id="tspan3306"
         style="font-size:18px;text-align:start;text-anchor:start;font-family:Gill Sans MT;-inkscape-font-specification:Gill Sans MT"
         y="888.36572"
         x="324.71951"
         sodipodi:role="line">send study to whole</tspan><tspan
         id="tspan3308"
         style="font-size:18px;text-align:start;text-anchor:start;font-family:Gill Sans MT;-inkscape-font-specification:Gill Sans MT"
         y="910.86572"
         x="324.71951"
         sodipodi:role="line">population </tspan></text>
    <g
       id="g3292"
       transform="translate(-130.30968,-18.725881)">
      <g
         transform="matrix(-1,0,0,1,408.72325,876.67382)"
         id="g5646">
        <path
           id="path5648"
           d="m 88.242,71.762 c 0,-0.98 -0.793,-1.774 -1.774,-1.774 H 15.07 c -0.98,0 -1.774,0.793 -1.774,1.774 0,0.98 0.793,1.774 1.774,1.774 h 71.398 c 0.98,0 1.774,-0.794 1.774,-1.774 z"
           inkscape:connector-curvature="0"
           style="fill:#000000" />
        <path
           id="path5650"
           d="m 24.008,39.967 9.136,25.278 c 0.263,0.724 0.942,1.171 1.67,1.171 0.201,0 0.405,-0.035 0.603,-0.104 0.922,-0.336 1.4,-1.351 1.067,-2.273 l -8.729,-24.152 24.225,-8.7 13.461,32.904 c 0.281,0.686 0.942,1.102 1.642,1.102 0.225,0 0.45,-0.042 0.672,-0.132 0.908,-0.371 1.341,-1.407 0.97,-2.314 L 54.621,28.271 c -0.042,-0.104 -0.12,-0.177 -0.179,-0.268 -0.062,-0.096 -0.11,-0.201 -0.187,-0.281 -0.094,-0.098 -0.209,-0.162 -0.322,-0.235 -0.076,-0.05 -0.142,-0.113 -0.225,-0.15 -0.134,-0.061 -0.279,-0.082 -0.424,-0.108 -0.079,-0.014 -0.152,-0.045 -0.233,-0.049 -0.135,-0.006 -0.269,0.03 -0.405,0.057 -0.09,0.016 -0.179,0.007 -0.267,0.037 l -27.301,9.805 c -0.82,0.296 -1.253,1.132 -1.115,1.961 -0.058,0.302 -0.067,0.616 0.045,0.927 z"
           inkscape:connector-curvature="0"
           style="fill:#000000" />
        <path
           id="path5652"
           d="m 41.019,58.004 c 0.312,0.218 0.669,0.322 1.022,0.322 0.554,0 1.105,-0.263 1.452,-0.752 l 3.295,-4.677 4.514,3.517 c 0.326,0.253 0.71,0.374 1.091,0.374 0.527,0 1.05,-0.236 1.4,-0.683 0.603,-0.773 0.464,-1.888 -0.308,-2.491 l -4.65,-3.623 3.396,-4.82 c 0.561,-0.8 0.371,-1.909 -0.43,-2.474 -0.8,-0.561 -1.906,-0.371 -2.474,0.43 l -3.297,4.68 -4.512,-3.516 c -0.78,-0.603 -1.888,-0.464 -2.491,0.308 -0.603,0.773 -0.464,1.888 0.308,2.491 l 4.648,3.622 -3.393,4.818 c -0.561,0.8 -0.371,1.909 0.429,2.474 z"
           inkscape:connector-curvature="0"
           style="fill:#000000" />
        <path
           id="path5654"
           d="M 87.351,76.785 H 56.603 c -0.98,0 -1.774,0.793 -1.774,1.774 0,0.98 0.793,1.774 1.774,1.774 h 30.748 c 0.98,0 1.774,-0.793 1.774,-1.774 0,-0.98 -0.793,-1.774 -1.774,-1.774 z"
           inkscape:connector-curvature="0"
           style="fill:#000000" />
      </g>
      <text
         sodipodi:linespacing="125%"
         id="text5682"
         y="894.89941"
         x="211.15022"
         style="font-size:12px;font-style:normal;font-variant:normal;font-weight:normal;font-stretch:normal;text-align:end;line-height:125%;letter-spacing:0px;word-spacing:0px;writing-mode:lr-tb;text-anchor:end;fill:#000000;fill-opacity:1;stroke:none;font-family:Calibri;-inkscape-font-specification:Calibri"
         xml:space="preserve"><tspan
           style="font-size:18px;text-align:start;text-anchor:start;font-family:Gill Sans MT;-inkscape-font-specification:Gill Sans MT"
           y="894.89941"
           x="211.15022"
           sodipodi:role="line"
           id="tspan5684"><tspan
   id="tspan5808"
   style="font-weight:bold">6.</tspan> Twins vote negatively </tspan><tspan
           style="font-size:18px;text-align:start;text-anchor:start;font-family:Gill Sans MT;-inkscape-font-specification:Gill Sans MT"
           y="917.39941"
           x="211.15022"
           sodipodi:role="line"
           id="tspan5688">on study: Study is</tspan><tspan
           id="tspan5692"
           style="font-size:18px;text-align:start;text-anchor:start;font-family:Gill Sans MT;-inkscape-font-specification:Gill Sans MT"
           y="939.89941"
           x="211.15022"
           sodipodi:role="line">not done</tspan></text>
    </g>
    <g
       id="g5758"
       transform="translate(7.2299239,811.4829)">
      <path
         inkscape:connector-curvature="0"
         d="m 30.7,34.2 c -1,0 -1.9,0.8 -1.9,1.9 v 36.1 h 28.6 c 3.7,0 6.7,-3 6.7,-6.7 V 36 c 0,-1 -0.8,-1.9 -1.9,-1.9 -1.1,0 -1.8,0.9 -1.8,1.9 v 29.4 c 0,1.6 -1.3,2.9 -2.9,2.9 H 32.6 V 36 c 0,-1 -0.9,-1.8 -1.9,-1.8 z"
         id="path5760" />
      <path
         inkscape:connector-curvature="0"
         d="m 27.3,31.2 h 11 v 0 h 16.4 v 0 h 11 c 1,0 1.9,-0.8 1.9,-1.9 0,-1.1 -0.8,-1.9 -1.9,-1.9 h -11 V 20.2 H 38.3 v 7.2 h -11 c -1,0 -1.9,0.8 -1.9,1.9 0,1.1 0.8,1.9 1.9,1.9 z M 42,24 h 8.9 v 3.4 H 42 V 24 z"
         id="path5762" />
      <path
         inkscape:connector-curvature="0"
         d="M 41.2,63.1 V 39.5 c 0,-1 -0.8,-1.9 -1.9,-1.9 -1.1,0 -1.9,0.8 -1.9,1.9 v 23.6 c 0,1 0.8,1.9 1.9,1.9 1.1,0 1.9,-0.9 1.9,-1.9 z"
         id="path5764" />
      <path
         inkscape:connector-curvature="0"
         d="M 48.4,63.1 V 39.5 c 0,-1 -0.8,-1.9 -1.9,-1.9 -1.1,0 -1.9,0.8 -1.9,1.9 v 23.6 c 0,1 0.8,1.9 1.9,1.9 1.1,0 1.9,-0.9 1.9,-1.9 z"
         id="path5766" />
      <path
         inkscape:connector-curvature="0"
         d="M 55.5,63.1 V 39.5 c 0,-1 -0.8,-1.9 -1.9,-1.9 -1.1,0 -1.9,0.8 -1.9,1.9 v 23.6 c 0,1 0.8,1.9 1.9,1.9 1.1,0 1.9,-0.9 1.9,-1.9 z"
         id="path5768" />
    </g>
    <g
       id="g3348"
       transform="matrix(-0.96394381,0.26610587,-0.26610587,-0.96394381,345.68099,800.35261)">
      <path
         style="fill:none"
         inkscape:connector-curvature="0"
         d="M 73.715,71.404 C 71.914,67.631 70.125,63.85 68.269,60.103 67.527,58.607 66.716,57.13 65.767,55.76 63.445,52.411 61.126,49.053 58.623,45.84 54.318,40.317 49.893,34.887 45.478,29.452 44.244,27.934 43.123,26.268 41.138,25.259 46.873,22.307 53.135,22.172 59.275,20.602 58.884,20.247 58.645,19.893 58.313,19.746 51.708,16.84 45.061,14.074 37.974,12.484 33.284,11.432 28.649,10.127 23.986,8.948 22.587,8.595 21.194,8.177 19.492,7.998 c 0.72,10.038 1.427,19.892 2.155,30.033 3.013,-1.898 5.767,-3.873 8.507,-5.924 2.462,0.917 4.596,2.189 6.559,3.746 2.128,1.688 4.209,3.433 6.314,5.149 6.268,5.109 11.746,10.981 16.692,17.363 1.728,2.229 3.37,4.531 5.189,6.683 2.989,3.531 5.472,7.377 7.712,11.411 1.826,3.29 3.788,6.502 5.705,9.741 0.182,0.307 0.468,0.552 0.718,0.841 0.624,-0.779 0.175,-1.362 0.013,-1.916 -1.384,-4.727 -3.222,-9.28 -5.341,-13.721 z"
         id="path3350" />
      <path
         style="fill:#000000;fill-rule:evenodd"
         inkscape:connector-curvature="0"
         clip-rule="evenodd"
         d="M 82.261,88.786 C 81.159,83.547 79.393,78.512 77.255,73.615 75.371,69.302 73.413,65.019 71.384,60.771 70.485,58.891 69.445,57.055 68.271,55.333 63.904,48.938 59.378,42.659 54.007,37.04 c -0.793,-0.83 -1.498,-1.745 -2.228,-2.635 -2.312,-2.823 -4.617,-5.652 -7.071,-8.657 0.703,-0.28 1.224,-0.592 1.784,-0.692 4.627,-0.822 9.265,-1.584 13.89,-2.415 1.416,-0.255 2.804,-0.667 4.542,-1.09 -0.589,-0.612 -0.851,-1.083 -1.247,-1.27 C 59.903,18.49 56.128,16.696 52.312,14.997 44.219,11.394 35.554,9.801 26.975,7.919 25.034,7.493 23.09,7.069 21.137,6.707 19.873,6.473 18.747,6.033 17.999,5 c -0.756,0.337 -0.606,0.862 -0.571,1.38 0.146,2.187 0.242,4.378 0.405,6.563 0.232,3.123 0.386,6.259 0.785,9.361 0.79,6.13 1.129,12.255 0.4,18.412 -0.037,0.312 -0.145,0.653 -0.055,0.927 0.118,0.356 0.34,0.74 0.634,0.95 0.18,0.129 0.65,0.056 0.866,-0.1 1.354,-0.972 2.685,-1.976 3.999,-3.003 2.386,-1.863 4.753,-3.749 7.259,-5.729 0.554,0.312 0.856,0.421 1.08,0.617 3.539,3.101 7.087,6.19 10.596,9.325 7.049,6.299 13.321,13.293 18.591,21.158 1.055,1.573 2.291,2.962 3.669,4.267 0.972,0.921 1.854,2 2.537,3.151 3.042,5.127 6.033,10.284 8.96,15.479 0.603,1.068 0.924,2.318 1.233,3.521 0.338,1.316 0.579,2.647 1.471,3.721 2.169,-0.255 2.639,-0.527 2.73,-2.181 0.072,-1.337 -0.051,-2.721 -0.327,-4.033 z M 79.042,87.041 C 78.792,86.752 78.506,86.507 78.324,86.2 76.407,82.961 74.445,79.749 72.619,76.459 70.38,72.425 67.896,68.579 64.907,65.048 63.087,62.896 61.445,60.595 59.718,58.365 54.772,51.982 49.294,46.111 43.026,41.002 40.921,39.286 38.84,37.541 36.712,35.853 34.749,34.296 32.615,33.024 30.153,32.107 27.412,34.158 24.658,36.133 21.646,38.031 20.918,27.89 20.211,18.037 19.491,7.998 c 1.703,0.179 3.095,0.596 4.494,0.95 4.663,1.179 9.298,2.485 13.988,3.536 7.087,1.59 13.734,4.356 20.339,7.262 0.332,0.146 0.572,0.5 0.962,0.856 -6.14,1.57 -12.401,1.705 -18.137,4.657 1.985,1.009 3.106,2.674 4.34,4.193 4.416,5.436 8.841,10.865 13.145,16.388 2.503,3.213 4.822,6.571 7.144,9.92 0.949,1.369 1.76,2.847 2.502,4.343 1.856,3.747 3.645,7.528 5.446,11.301 2.119,4.441 3.957,8.994 5.34,13.72 0.162,0.555 0.612,1.138 -0.012,1.917 z"
         id="path3352" />
    </g>
    <g
       transform="matrix(0.96394381,-0.26610587,0.26610587,0.96394381,222.97066,664.22687)"
       id="g3354">
      <path
         id="path3356"
         d="M 73.715,71.404 C 71.914,67.631 70.125,63.85 68.269,60.103 67.527,58.607 66.716,57.13 65.767,55.76 63.445,52.411 61.126,49.053 58.623,45.84 54.318,40.317 49.893,34.887 45.478,29.452 44.244,27.934 43.123,26.268 41.138,25.259 46.873,22.307 53.135,22.172 59.275,20.602 58.884,20.247 58.645,19.893 58.313,19.746 51.708,16.84 45.061,14.074 37.974,12.484 33.284,11.432 28.649,10.127 23.986,8.948 22.587,8.595 21.194,8.177 19.492,7.998 c 0.72,10.038 1.427,19.892 2.155,30.033 3.013,-1.898 5.767,-3.873 8.507,-5.924 2.462,0.917 4.596,2.189 6.559,3.746 2.128,1.688 4.209,3.433 6.314,5.149 6.268,5.109 11.746,10.981 16.692,17.363 1.728,2.229 3.37,4.531 5.189,6.683 2.989,3.531 5.472,7.377 7.712,11.411 1.826,3.29 3.788,6.502 5.705,9.741 0.182,0.307 0.468,0.552 0.718,0.841 0.624,-0.779 0.175,-1.362 0.013,-1.916 -1.384,-4.727 -3.222,-9.28 -5.341,-13.721 z"
         inkscape:connector-curvature="0"
         style="fill:none" />
      <path
         id="path3358"
         d="M 82.261,88.786 C 81.159,83.547 79.393,78.512 77.255,73.615 75.371,69.302 73.413,65.019 71.384,60.771 70.485,58.891 69.445,57.055 68.271,55.333 63.904,48.938 59.378,42.659 54.007,37.04 c -0.793,-0.83 -1.498,-1.745 -2.228,-2.635 -2.312,-2.823 -4.617,-5.652 -7.071,-8.657 0.703,-0.28 1.224,-0.592 1.784,-0.692 4.627,-0.822 9.265,-1.584 13.89,-2.415 1.416,-0.255 2.804,-0.667 4.542,-1.09 -0.589,-0.612 -0.851,-1.083 -1.247,-1.27 C 59.903,18.49 56.128,16.696 52.312,14.997 44.219,11.394 35.554,9.801 26.975,7.919 25.034,7.493 23.09,7.069 21.137,6.707 19.873,6.473 18.747,6.033 17.999,5 c -0.756,0.337 -0.606,0.862 -0.571,1.38 0.146,2.187 0.242,4.378 0.405,6.563 0.232,3.123 0.386,6.259 0.785,9.361 0.79,6.13 1.129,12.255 0.4,18.412 -0.037,0.312 -0.145,0.653 -0.055,0.927 0.118,0.356 0.34,0.74 0.634,0.95 0.18,0.129 0.65,0.056 0.866,-0.1 1.354,-0.972 2.685,-1.976 3.999,-3.003 2.386,-1.863 4.753,-3.749 7.259,-5.729 0.554,0.312 0.856,0.421 1.08,0.617 3.539,3.101 7.087,6.19 10.596,9.325 7.049,6.299 13.321,13.293 18.591,21.158 1.055,1.573 2.291,2.962 3.669,4.267 0.972,0.921 1.854,2 2.537,3.151 3.042,5.127 6.033,10.284 8.96,15.479 0.603,1.068 0.924,2.318 1.233,3.521 0.338,1.316 0.579,2.647 1.471,3.721 2.169,-0.255 2.639,-0.527 2.73,-2.181 0.072,-1.337 -0.051,-2.721 -0.327,-4.033 z M 79.042,87.041 C 78.792,86.752 78.506,86.507 78.324,86.2 76.407,82.961 74.445,79.749 72.619,76.459 70.38,72.425 67.896,68.579 64.907,65.048 63.087,62.896 61.445,60.595 59.718,58.365 54.772,51.982 49.294,46.111 43.026,41.002 40.921,39.286 38.84,37.541 36.712,35.853 34.749,34.296 32.615,33.024 30.153,32.107 27.412,34.158 24.658,36.133 21.646,38.031 20.918,27.89 20.211,18.037 19.491,7.998 c 1.703,0.179 3.095,0.596 4.494,0.95 4.663,1.179 9.298,2.485 13.988,3.536 7.087,1.59 13.734,4.356 20.339,7.262 0.332,0.146 0.572,0.5 0.962,0.856 -6.14,1.57 -12.401,1.705 -18.137,4.657 1.985,1.009 3.106,2.674 4.34,4.193 4.416,5.436 8.841,10.865 13.145,16.388 2.503,3.213 4.822,6.571 7.144,9.92 0.949,1.369 1.76,2.847 2.502,4.343 1.856,3.747 3.645,7.528 5.446,11.301 2.119,4.441 3.957,8.994 5.34,13.72 0.162,0.555 0.612,1.138 -0.012,1.917 z"
         clip-rule="evenodd"
         inkscape:connector-curvature="0"
         style="fill:#000000;fill-rule:evenodd" />
    </g>
    <g
       id="g3360"
       transform="matrix(0.96394381,0.26610587,0.26610587,-0.96394381,64.399238,841.20976)">
      <path
         style="fill:none"
         inkscape:connector-curvature="0"
         d="M 73.715,71.404 C 71.914,67.631 70.125,63.85 68.269,60.103 67.527,58.607 66.716,57.13 65.767,55.76 63.445,52.411 61.126,49.053 58.623,45.84 54.318,40.317 49.893,34.887 45.478,29.452 44.244,27.934 43.123,26.268 41.138,25.259 46.873,22.307 53.135,22.172 59.275,20.602 58.884,20.247 58.645,19.893 58.313,19.746 51.708,16.84 45.061,14.074 37.974,12.484 33.284,11.432 28.649,10.127 23.986,8.948 22.587,8.595 21.194,8.177 19.492,7.998 c 0.72,10.038 1.427,19.892 2.155,30.033 3.013,-1.898 5.767,-3.873 8.507,-5.924 2.462,0.917 4.596,2.189 6.559,3.746 2.128,1.688 4.209,3.433 6.314,5.149 6.268,5.109 11.746,10.981 16.692,17.363 1.728,2.229 3.37,4.531 5.189,6.683 2.989,3.531 5.472,7.377 7.712,11.411 1.826,3.29 3.788,6.502 5.705,9.741 0.182,0.307 0.468,0.552 0.718,0.841 0.624,-0.779 0.175,-1.362 0.013,-1.916 -1.384,-4.727 -3.222,-9.28 -5.341,-13.721 z"
         id="path3362" />
      <path
         style="fill:#000000;fill-rule:evenodd"
         inkscape:connector-curvature="0"
         clip-rule="evenodd"
         d="M 82.261,88.786 C 81.159,83.547 79.393,78.512 77.255,73.615 75.371,69.302 73.413,65.019 71.384,60.771 70.485,58.891 69.445,57.055 68.271,55.333 63.904,48.938 59.378,42.659 54.007,37.04 c -0.793,-0.83 -1.498,-1.745 -2.228,-2.635 -2.312,-2.823 -4.617,-5.652 -7.071,-8.657 0.703,-0.28 1.224,-0.592 1.784,-0.692 4.627,-0.822 9.265,-1.584 13.89,-2.415 1.416,-0.255 2.804,-0.667 4.542,-1.09 -0.589,-0.612 -0.851,-1.083 -1.247,-1.27 C 59.903,18.49 56.128,16.696 52.312,14.997 44.219,11.394 35.554,9.801 26.975,7.919 25.034,7.493 23.09,7.069 21.137,6.707 19.873,6.473 18.747,6.033 17.999,5 c -0.756,0.337 -0.606,0.862 -0.571,1.38 0.146,2.187 0.242,4.378 0.405,6.563 0.232,3.123 0.386,6.259 0.785,9.361 0.79,6.13 1.129,12.255 0.4,18.412 -0.037,0.312 -0.145,0.653 -0.055,0.927 0.118,0.356 0.34,0.74 0.634,0.95 0.18,0.129 0.65,0.056 0.866,-0.1 1.354,-0.972 2.685,-1.976 3.999,-3.003 2.386,-1.863 4.753,-3.749 7.259,-5.729 0.554,0.312 0.856,0.421 1.08,0.617 3.539,3.101 7.087,6.19 10.596,9.325 7.049,6.299 13.321,13.293 18.591,21.158 1.055,1.573 2.291,2.962 3.669,4.267 0.972,0.921 1.854,2 2.537,3.151 3.042,5.127 6.033,10.284 8.96,15.479 0.603,1.068 0.924,2.318 1.233,3.521 0.338,1.316 0.579,2.647 1.471,3.721 2.169,-0.255 2.639,-0.527 2.73,-2.181 0.072,-1.337 -0.051,-2.721 -0.327,-4.033 z M 79.042,87.041 C 78.792,86.752 78.506,86.507 78.324,86.2 76.407,82.961 74.445,79.749 72.619,76.459 70.38,72.425 67.896,68.579 64.907,65.048 63.087,62.896 61.445,60.595 59.718,58.365 54.772,51.982 49.294,46.111 43.026,41.002 40.921,39.286 38.84,37.541 36.712,35.853 34.749,34.296 32.615,33.024 30.153,32.107 27.412,34.158 24.658,36.133 21.646,38.031 20.918,27.89 20.211,18.037 19.491,7.998 c 1.703,0.179 3.095,0.596 4.494,0.95 4.663,1.179 9.298,2.485 13.988,3.536 7.087,1.59 13.734,4.356 20.339,7.262 0.332,0.146 0.572,0.5 0.962,0.856 -6.14,1.57 -12.401,1.705 -18.137,4.657 1.985,1.009 3.106,2.674 4.34,4.193 4.416,5.436 8.841,10.865 13.145,16.388 2.503,3.213 4.822,6.571 7.144,9.92 0.949,1.369 1.76,2.847 2.502,4.343 1.856,3.747 3.645,7.528 5.446,11.301 2.119,4.441 3.957,8.994 5.34,13.72 0.162,0.555 0.612,1.138 -0.012,1.917 z"
         id="path3364" />
    </g>
  </g>
</svg>
